<svg width="49" height="53" viewBox="0 0 49 53" fill="none" xmlns="http://www.w3.org/2000/svg">
<g filter="url(#filter0_d_1_758)">
<path fill-rule="evenodd" clip-rule="evenodd" d="M10 0L17.0078 6.63413L4 6.62646V38.8137H38V26.507L45 33.1338V0H10ZM37.6924 25.7283L17.8226 6.91796H37.6924V25.7283ZM31.5231 34.1055H9.38008V12.4579H10.9453V32.6397H31.5231V34.1055ZM14.6089 43.0991L13.791 44.7837L12.9731 43.0991H12.2871L13.481 45.3452V46.6538H14.1011V45.3452L15.2925 43.0991H14.6089ZM15.6367 46.6538L15.9248 45.8262H17.3018L17.5923 46.6538H18.2368L16.8916 43.0991H16.3374L14.9946 46.6538H15.6367ZM16.6133 43.8535L17.1284 45.3281H16.0981L16.6133 43.8535ZM19.8701 45.2427C19.7806 45.3794 19.7358 45.5299 19.7358 45.6943C19.7358 45.9938 19.8408 46.2371 20.0508 46.4243C20.2624 46.6099 20.5439 46.7026 20.8955 46.7026C21.2471 46.7026 21.5498 46.6074 21.8037 46.417L22.0039 46.6538H22.6924L22.1699 46.0361C22.375 45.7562 22.4775 45.3973 22.4775 44.9595H21.9624C21.9624 45.1987 21.9128 45.416 21.8135 45.6113L21.1274 44.8008L21.3691 44.625C21.54 44.5013 21.6629 44.3776 21.7378 44.2539C21.8127 44.1286 21.8501 43.9919 21.8501 43.8438C21.8501 43.6191 21.7671 43.4312 21.6011 43.2798C21.4367 43.1268 21.2251 43.0503 20.9663 43.0503C20.6798 43.0503 20.452 43.1317 20.2827 43.2944C20.1134 43.4556 20.0288 43.6753 20.0288 43.9536C20.0288 44.0675 20.0557 44.1855 20.1094 44.3076C20.1647 44.4297 20.2616 44.5778 20.3999 44.752C20.1362 44.9408 19.9596 45.1043 19.8701 45.2427ZM21.4741 46.0288C21.3 46.1623 21.1128 46.229 20.9126 46.229C20.7352 46.229 20.5936 46.1777 20.4878 46.0752C20.382 45.9727 20.3291 45.8392 20.3291 45.6748C20.3291 45.4844 20.4268 45.3151 20.6221 45.167L20.6978 45.1133L21.4741 46.0288ZM20.8369 44.4541C20.6693 44.2474 20.5854 44.0757 20.5854 43.939C20.5854 43.8201 20.6196 43.7217 20.688 43.6436C20.7563 43.5654 20.8483 43.5264 20.9639 43.5264C21.0713 43.5264 21.16 43.5597 21.23 43.6265C21.3 43.6916 21.335 43.7705 21.335 43.8633C21.335 44.0033 21.2845 44.118 21.1836 44.2075L21.1079 44.2686L20.8369 44.4541ZM26.623 46.3853C26.8672 46.172 27.0072 45.8758 27.043 45.4966H26.4277C26.3952 45.7505 26.3179 45.932 26.1958 46.041C26.0737 46.1501 25.8914 46.2046 25.6489 46.2046C25.3836 46.2046 25.1818 46.1037 25.0435 45.9019C24.9067 45.7 24.8384 45.4071 24.8384 45.0229V44.708C24.8416 44.3288 24.9149 44.0415 25.0581 43.8462C25.203 43.6493 25.4097 43.5508 25.6782 43.5508C25.9093 43.5508 26.0843 43.6077 26.2031 43.7217C26.3236 43.834 26.3984 44.0179 26.4277 44.2734H27.043C27.0039 43.8844 26.8647 43.5833 26.6255 43.3701C26.3862 43.1569 26.0705 43.0503 25.6782 43.0503C25.3869 43.0503 25.1297 43.1195 24.9067 43.2578C24.6854 43.3962 24.5153 43.5931 24.3965 43.8486C24.2777 44.1042 24.2183 44.3996 24.2183 44.7349V45.0669C24.2231 45.394 24.2842 45.6813 24.4014 45.9287C24.5186 46.1761 24.6846 46.3674 24.8994 46.5024C25.1159 46.6359 25.3657 46.7026 25.6489 46.7026C26.0542 46.7026 26.3789 46.5968 26.623 46.3853ZM30.2534 45.8872C30.3739 45.6235 30.4341 45.3175 30.4341 44.9692V44.7715C30.4325 44.4248 30.3706 44.1213 30.2485 43.8608C30.1265 43.5988 29.9531 43.3986 29.7285 43.2603C29.5055 43.1203 29.2492 43.0503 28.9595 43.0503C28.6698 43.0503 28.4126 43.1211 28.188 43.2627C27.965 43.4027 27.7917 43.6053 27.668 43.8706C27.5459 44.1359 27.4849 44.4419 27.4849 44.7886V44.9888C27.4865 45.3289 27.5483 45.6292 27.6704 45.8896C27.7941 46.1501 27.9683 46.3511 28.1929 46.4927C28.4191 46.6326 28.6763 46.7026 28.9644 46.7026C29.2557 46.7026 29.5129 46.6326 29.7358 46.4927C29.9604 46.3511 30.133 46.1493 30.2534 45.8872ZM29.5918 43.8779C29.7415 44.0879 29.8164 44.3898 29.8164 44.7837V44.9692C29.8164 45.3696 29.7423 45.674 29.5942 45.8823C29.4478 46.0907 29.2378 46.1948 28.9644 46.1948C28.6942 46.1948 28.4826 46.0882 28.3296 45.875C28.1782 45.6618 28.1025 45.3599 28.1025 44.9692V44.7642C28.1058 44.3817 28.1823 44.0863 28.332 43.8779C28.4834 43.668 28.6925 43.563 28.9595 43.563C29.2329 43.563 29.4437 43.668 29.5918 43.8779Z" fill="#AFB1B8"/>
</g>
<defs>
<filter id="filter0_d_1_758" x="0" y="0" width="49" height="54.7026" filterUnits="userSpaceOnUse" color-interpolation-filters="sRGB">
<feFlood flood-opacity="0" result="BackgroundImageFix"/>
<feColorMatrix in="SourceAlpha" type="matrix" values="0 0 0 0 0 0 0 0 0 0 0 0 0 0 0 0 0 0 127 0" result="hardAlpha"/>
<feOffset dy="4"/>
<feGaussianBlur stdDeviation="2"/>
<feComposite in2="hardAlpha" operator="out"/>
<feColorMatrix type="matrix" values="0 0 0 0 0 0 0 0 0 0 0 0 0 0 0 0 0 0 0.25 0"/>
<feBlend mode="normal" in2="BackgroundImageFix" result="effect1_dropShadow_1_758"/>
<feBlend mode="normal" in="SourceGraphic" in2="effect1_dropShadow_1_758" result="shape"/>
</filter>
</defs>
</svg>
