<svg aria-hidden="true" style="position: absolute; width: 0; height: 0; overflow: hidden;" version="1.1" xmlns="http://www.w3.org/2000/svg" xmlns:xlink="http://www.w3.org/1999/xlink">
<defs>
<symbol id="icon-pref1antena" viewBox="0 0 32 32">
<path fill="#212121" style="fill: var(--color1, #212121)" d="M30.773 22.098l-8.443-8.505 0.937-4.616c0.225 0.090 0.485 0.144 0.758 0.146h0.007c0.008 0 0.017 0 0.026 0 1.192 0 2.159-0.967 2.159-2.159s-0.967-2.159-2.159-2.159c-1.192 0-2.159 0.967-2.159 2.159 0 0.259 0.046 0.508 0.13 0.739l-0.005-0.015-4.96 0.606-8.091-8.133c-0.096-0.098-0.229-0.159-0.376-0.16h-0c-0.14 0.001-0.274 0.057-0.373 0.155l-1.512 1.504c-0.096 0.097-0.156 0.23-0.156 0.377s0.060 0.281 0.156 0.377v0l0.814 0.825c-1.143 2.062-1.816 4.522-1.816 7.139 0 4.106 1.656 7.824 4.336 10.525l-0.001-0.001c0.043 0.041 0.092 0.074 0.146 0.097-0.032 0.164-0.051 0.353-0.052 0.546v6.188h-6.4c-1.472 0.001-2.666 1.194-2.667 2.666v1.067c0 0.295 0.239 0.534 0.534 0.534h24.534c0.294 0 0.533-0.239 0.533-0.534v-1.067c-0.002-1.472-1.195-2.665-2.666-2.666h-6.4v-2.742c1.003 0.21 2.024 0.317 3.049 0.32 2.58-0.003 5.005-0.663 7.117-1.822l-0.077 0.039 0.818 0.823c0.099 0.101 0.235 0.159 0.376 0.16 0.14-0.001 0.274-0.057 0.373-0.155l1.512-1.504c0.096-0.097 0.156-0.23 0.156-0.377s-0.060-0.281-0.156-0.377v0zM23.28 6.233c0.193-0.192 0.459-0.31 0.752-0.31 0.589 0 1.067 0.478 1.067 1.066s-0.477 1.066-1.067 1.066c-0 0-0 0-0 0h-0.004c-0.587-0.003-1.061-0.479-1.061-1.066 0-0.295 0.12-0.563 0.314-0.756l0-0h-0.002zM22.024 9.737l-0.598 2.946-1.175-1.183 1.774-1.763zM21.419 8.835l-1.92 1.909-1.486-1.493 3.406-0.416zM24.004 28.8c0.884 0 1.6 0.716 1.6 1.6v0 0.534h-23.466v-0.534c0-0.884 0.716-1.6 1.6-1.6v0h20.267zM16.538 26.666v1.067h-5.334v-1.067h5.334zM11.204 25.6v-4.053c0-1.294 1.196-2.346 2.667-2.346s2.667 1.053 2.667 2.346v4.053h-5.334zM17.604 23.904v-2.357c0-1.882-1.675-3.413-3.733-3.413-0.017-0-0.038-0-0.058-0-1.353 0-2.54 0.707-3.213 1.771l-0.009 0.016c-2.36-2.482-3.812-5.846-3.812-9.55 0-2.314 0.567-4.496 1.569-6.414l-0.036 0.077 18.602 18.709c-1.823 0.947-3.979 1.502-6.266 1.502-1.079 0-2.128-0.124-3.136-0.357l0.093 0.018zM28.893 23.22l-21.057-21.181 0.754-0.752 7.935 7.98c0.004 0 0.006 0.007 0.010 0.010l13.114 13.191-0.757 0.752z"></path>
<path fill="#2196f3" style="fill: var(--color2, #2196f3)" d="M13.876 20.267h-0.005c-0.001 0-0.002 0-0.002 0-0.884 0-1.6 0.716-1.6 1.6s0.715 1.599 1.597 1.6h0.005c0.001 0 0.001 0 0.002 0 0.884 0 1.6-0.716 1.6-1.6s-0.715-1.599-1.598-1.6h-0zM14.249 22.245c-0.096 0.096-0.229 0.155-0.376 0.155-0.295 0-0.534-0.239-0.534-0.534s0.238-0.533 0.532-0.533h0c0.293 0.001 0.531 0.239 0.531 0.533 0 0.148-0.060 0.282-0.157 0.378l-0 0h0.005z"></path>
</symbol>
<symbol id="icon-pref2clock" viewBox="0 0 32 32">
<path fill="#212121" style="fill: var(--color1, #212121)" d="M31.296 15.301c-0.001-8.452-6.855-15.303-15.308-15.301s-15.303 6.855-15.301 15.308c0.002 6.788 4.422 12.543 10.541 14.545l0.108 0.031c0.061 0.019 0.123 0.029 0.187 0.029 0.12 0 0.238-0.032 0.342-0.094 0.135-0.080 0.236-0.207 0.283-0.357l3.865-12.25c1.054-0.004 1.906-0.859 1.906-1.913 0-1.056-0.856-1.913-1.913-1.913-0.303 0-0.59 0.071-0.845 0.196l0.011-0.005-5.106-5.107c-0.114-0.11-0.271-0.179-0.443-0.179-0.352 0-0.638 0.286-0.638 0.638 0 0.172 0.068 0.328 0.179 0.443l-0-0 5.103 5.109c-0.121 0.241-0.191 0.525-0.191 0.826 0 0.602 0.283 1.137 0.723 1.48l0.004 0.003-3.682 11.673c-7.278-2.681-11.004-10.754-8.324-18.032s10.754-11.004 18.032-8.323c7.278 2.681 11.004 10.754 8.323 18.032-1.345 3.581-4.003 6.406-7.374 7.938l-0.088 0.036-0.398-1.874c-0.063-0.291-0.318-0.506-0.624-0.506-0.164 0-0.313 0.062-0.426 0.163l0.001-0.001-3.837 3.426c-0.132 0.117-0.214 0.287-0.214 0.477 0 0.283 0.185 0.524 0.441 0.606l0.005 0.001 4.899 1.563c0.058 0.020 0.126 0.031 0.196 0.031 0.352 0 0.637-0.285 0.637-0.637 0-0.047-0.005-0.093-0.015-0.138l0.001 0.004-0.391-1.839c5.528-2.374 9.329-7.772 9.329-14.057 0-0.011 0-0.023-0-0.034v0.002zM15.992 14.664c0.352 0 0.638 0.286 0.638 0.638s-0.285 0.638-0.638 0.638v0c-0.352 0-0.638-0.286-0.638-0.638s0.286-0.638 0.638-0.638v0zM18.092 29.528l2.184-1.948 0.603 2.84-2.787-0.892z"></path>
<path fill="#2196f3" style="fill: var(--color2, #2196f3)" d="M15.354 3.185v1.275c0 0.352 0.286 0.638 0.638 0.638s0.638-0.285 0.638-0.638v0-1.275c0-0.352-0.285-0.638-0.638-0.638s-0.638 0.285-0.638 0.638v0zM3.876 14.664c-0.352 0-0.638 0.286-0.638 0.638s0.285 0.638 0.638 0.638h1.275c0.352 0 0.638-0.286 0.638-0.638s-0.285-0.638-0.638-0.638h-1.275zM28.108 15.939c0.352 0 0.638-0.286 0.638-0.638s-0.285-0.638-0.638-0.638h-1.275c-0.352 0-0.638 0.286-0.638 0.638s0.285 0.638 0.638 0.638h1.275z"></path>
</symbol>
<symbol id="icon-pref3diagram" viewBox="0 0 32 32">
<path fill="#2196f3" style="fill: var(--color2, #2196f3)" d="M14.926 14.965h1.066v4.798h-1.066v-4.798zM19.19 17.097h1.066v2.665h-1.066v-2.665zM10.661 18.696h1.066v1.066h-1.066v-1.066zM7.463 18.163h1.066v1.599h-1.066v-1.599z"></path>
<path fill="#212121" style="fill: var(--color1, #212121)" d="M1.599 28.291h25.586c0 0 0 0 0 0 0.883 0 1.599-0.716 1.599-1.599v0-2.132c0-0.883-0.716-1.599-1.599-1.599v0h-0.533v-13.294l3.028-2.868c0.207 0.104 0.452 0.166 0.711 0.166 0.888 0 1.608-0.72 1.608-1.608s-0.72-1.608-1.608-1.608c-0.888 0-1.608 0.72-1.608 1.608 0 0.247 0.056 0.481 0.155 0.69l-0.004-0.010-2.281 2.162v-1.23c0-0.883-0.716-1.599-1.599-1.599v0h-21.323c-0.883 0-1.599 0.716-1.599 1.599v0 15.992h-0.533c-0.883 0-1.599 0.716-1.599 1.599v0 2.132c0 0.883 0.716 1.599 1.599 1.599v0zM30.384 4.837c0.294 0 0.533 0.239 0.533 0.533s-0.239 0.533-0.533 0.533v0c-0.294 0-0.533-0.239-0.533-0.533s0.239-0.533 0.533-0.533v0zM3.198 6.969c0-0.294 0.239-0.533 0.533-0.533h21.323c0.294 0 0.533 0.239 0.533 0.533v2.239l-1.066 1.013v-2.185c0-0.295-0.239-0.534-0.534-0.534h-19.189c-0.294 0-0.534 0.239-0.534 0.533v13.327c0 0.294 0.239 0.533 0.534 0.533h19.189c0.295 0 0.534-0.239 0.534-0.533v-9.675l1.066-1.010v12.283h-22.389v-15.991zM7.996 13.899c-0.001 0-0.003 0-0.005 0-0.883 0-1.599 0.716-1.599 1.599s0.716 1.599 1.599 1.599c0.432 0 0.824-0.172 1.112-0.45l-0 0 1.853 0.93c0.215 0.107 0.476 0.057 0.636-0.122l3.939-4.432 3.872 2.902c0.208 0.155 0.498 0.139 0.686-0.039l3.365-3.188v8.131h-18.123v-12.261h18.123v2.661l-3.771 3.572-3.904-2.927c-0.088-0.067-0.2-0.107-0.32-0.107-0.158 0-0.3 0.069-0.398 0.178l-0 0.001-3.993 4.493-1.493-0.746c0.011-0.064 0.017-0.128 0.020-0.193 0-0.883-0.716-1.599-1.599-1.599v0zM8.529 15.498c0 0.294-0.239 0.533-0.533 0.533s-0.533-0.239-0.533-0.533v0c0-0.294 0.239-0.533 0.533-0.533s0.533 0.239 0.533 0.533v0zM11.727 24.026h5.33v0.533c0 0.294-0.238 0.533-0.533 0.533h-4.265c-0.294 0-0.533-0.239-0.533-0.533v0-0.533zM1.067 24.56c0-0.294 0.238-0.533 0.533-0.533h9.062v0.533c0 0.883 0.716 1.599 1.599 1.599v0h4.265c0.883 0 1.599-0.716 1.599-1.599v0-0.533h9.062c0.294 0 0.533 0.239 0.533 0.533v2.132c0 0.294-0.239 0.533-0.533 0.533h-25.586c-0 0-0 0-0 0-0.294 0-0.533-0.239-0.533-0.533 0 0 0 0 0 0v0-2.132z"></path>
</symbol>
<symbol id="icon-pref4astronaut" viewBox="0 0 32 32">
<path fill="#2196f3" style="fill: var(--color2, #2196f3)" d="M31.974 4.524c-0.064-0.191-0.227-0.332-0.427-0.362l-0.003-0-1.911-0.278-0.855-1.731c-0.179-0.365-0.777-0.365-0.956 0l-0.855 1.731-1.911 0.278c-0.26 0.039-0.457 0.26-0.457 0.528 0 0.15 0.062 0.285 0.161 0.382l1.383 1.348-0.326 1.903c-0.034 0.2 0.048 0.402 0.212 0.522 0.166 0.12 0.383 0.135 0.562 0.040l1.709-0.899 1.709 0.899c0.072 0.038 0.157 0.061 0.247 0.061 0.295 0 0.534-0.239 0.534-0.534 0-0.031-0.003-0.062-0.008-0.092l0 0.003-0.326-1.903 1.383-1.348c0.099-0.097 0.161-0.233 0.161-0.382 0-0.059-0.009-0.115-0.027-0.168l0.001 0.004zM29.511 5.851c-0.126 0.122-0.183 0.299-0.153 0.472l0.191 1.114-1-0.526c-0.072-0.039-0.158-0.062-0.249-0.062s-0.177 0.023-0.252 0.063l0.003-0.001-1 0.526 0.191-1.114c0.005-0.027 0.008-0.059 0.008-0.091 0-0.149-0.061-0.285-0.16-0.381l-0-0-0.811-0.79 1.119-0.162c0.174-0.025 0.324-0.134 0.402-0.292l0.5-1.013 0.5 1.013c0.078 0.158 0.228 0.267 0.402 0.292l1.119 0.162-0.809 0.79zM26.134 20.522h-1.067v1.067h1.067v-1.067zM26.134 22.656h-1.067v1.066h1.067v-1.066zM27.2 21.589h-1.067v1.067h1.067v-1.067zM25.067 21.589h-1.067v1.067h1.067v-1.067zM22.4 26.389h-1.067v1.067h1.067v-1.067zM22.4 28.523h-1.067v1.067h1.067v-1.067zM23.467 27.456h-1.067v1.067h1.067v-1.067zM21.334 27.456h-1.067v1.067h1.067v-1.067zM16 24.256h-1.066v1.067h1.066v-1.067zM16 26.389h-1.066v1.067h1.066v-1.067zM17.067 25.322h-1.067v1.067h1.067v-1.067zM14.934 25.322h-1.067v1.067h1.067v-1.067zM5.867 6.122h-1.066v1.066h1.066v-1.066zM5.867 8.256h-1.066v1.066h1.066v-1.066zM6.933 7.189h-1.067v1.067h1.066v-1.067zM4.8 7.189h-1.067v1.067h1.067v-1.067z"></path>
<path fill="#212121" style="fill: var(--color1, #212121)" d="M24.715 14.16c-0.28-0.376-0.698-0.636-1.179-0.703l-0.009-0.001c-0.076-0.012-0.164-0.018-0.254-0.018-0.411 0-0.789 0.139-1.090 0.373l0.004-0.003-1.253 0.96-1.898 1.417-1.358-0.541c2.421-1.086 4.113-3.508 4.113-6.32 0-3.823-3.122-6.934-6.961-6.934s-6.961 3.11-6.961 6.934c0 1.386 0.415 2.674 1.12 3.759l-2.768-0.024c-0.009 0-0.016 0.005-0.023 0.005-0.057 0.003-0.11 0.014-0.159 0.033l0.004-0.001c-0.013 0.005-0.026 0.007-0.038 0.013-0.006 0.003-0.013 0.003-0.019 0.006l-3.233 1.596c-0 0-0.001 0-0.001 0.001l-1.893 0.91c-0.024 0.011-0.045 0.023-0.065 0.036l0.001-0.001c-0.482 0.324-0.795 0.867-0.795 1.483 0 0.297 0.073 0.577 0.201 0.823l-0.005-0.010c0.22 0.424 0.592 0.742 1.043 0.885l0.013 0.003c0.161 0.053 0.345 0.083 0.537 0.083 0.308 0 0.598-0.078 0.851-0.216l-0.009 0.005 1.388-0.738 2.264-1.169 1.357-0.008-5.442 5.415c0 0.001-0.001 0.001-0.001 0.001l-1.339 1.333c-0.303 0.299-0.491 0.714-0.491 1.173 0 0.002 0 0.003 0 0.005v-0c0.002 0.919 0.748 1.664 1.667 1.664 0.001 0 0.002 0 0.002 0h-0c0.428 0 0.854-0.162 1.18-0.485l1.314-1.309 1.741-1.3 0.901 0.897-3.102 3.088c-0.303 0.299-0.491 0.714-0.491 1.173 0 0.001 0 0.003 0 0.004v-0c0 0.445 0.174 0.864 0.49 1.179 0.302 0.3 0.717 0.485 1.176 0.485 0.001 0 0.002 0 0.003 0h-0c0.427 0 0.855-0.162 1.18-0.485l4.488-4.472c0.007-0.006 0.016-0.009 0.022-0.016l5.166-5.658 3.471 0.494c0.025 0.004 0.050 0.006 0.075 0.006 0.064 0 0.127-0.016 0.187-0.038 0.017-0.006 0.032-0.015 0.049-0.023 0.019-0.010 0.039-0.015 0.058-0.027l3.213-2.133c0.012-0.008 0.018-0.021 0.029-0.030 0.013-0.010 0.029-0.014 0.041-0.026l1.271-1.191c0.348-0.326 0.564-0.787 0.564-1.3 0-0.4-0.132-0.769-0.355-1.066l0.003 0.005zM2.13 17.77c-0.098 0.054-0.215 0.086-0.34 0.086-0.078 0-0.153-0.013-0.224-0.036l0.005 0.001c-0.294-0.093-0.504-0.364-0.504-0.683 0-0.235 0.114-0.444 0.289-0.575l0.002-0.001 1.314-0.632 0.316 0.924 0.133 0.389-0.992 0.527zM5.627 15.942l-1.548 0.8-0.255-0.746-0.184-0.537 2.027-1.001-0.040 1.484zM20.727 9.322c0 0.918-0.219 1.785-0.599 2.56l-4.181-1.899c-0.044-0.575-0.342-1.072-0.782-1.384l-0.006-0.004 1.464-4.861c2.377 0.757 4.104 2.975 4.104 5.588zM8.938 9.322c0-3.235 2.644-5.867 5.894-5.867 0.253 0 0.5 0.022 0.745 0.053l-1.432 4.753c-0.019 0-0.037-0.006-0.057-0.006-0 0-0.001 0-0.001 0-1.032 0-1.869 0.835-1.872 1.867v0c0.003 1.031 0.84 1.867 1.872 1.867 0 0 0 0 0.001 0h-0c0.695 0 1.295-0.383 1.618-0.944l3.863 1.755c-1.075 1.447-2.795 2.39-4.737 2.39-3.25 0-5.894-2.632-5.894-5.867zM14.895 10.122c0 0.441-0.362 0.8-0.806 0.8-0 0-0.001 0-0.001 0-0.443 0-0.802-0.358-0.804-0.8v-0c0-0.441 0.361-0.8 0.806-0.8s0.806 0.359 0.806 0.8zM2.464 25.146c-0.11 0.109-0.261 0.176-0.428 0.176s-0.317-0.067-0.427-0.175l0 0c-0.109-0.108-0.176-0.257-0.176-0.422s0.067-0.314 0.176-0.422l0-0 0.962-0.959 0.852 0.848-0.959 0.954zM5.678 28.88c-0.11 0.109-0.261 0.176-0.428 0.176s-0.317-0.067-0.427-0.175l0 0c-0.109-0.108-0.176-0.257-0.176-0.422s0.067-0.314 0.176-0.422l0-0 0.963-0.959 0.852 0.848-0.96 0.955zM9.16 25.411l-0.001 0.001-1.765 1.76-0.852-0.848 1.765-1.757c0.040-0.040 0.065-0.088 0.090-0.136 0.007-0.014 0.020-0.026 0.026-0.040 0.016-0.041 0.019-0.085 0.026-0.128 0.003-0.025 0.014-0.048 0.014-0.073 0-0.035-0.013-0.070-0.020-0.105-0.006-0.032-0.006-0.064-0.019-0.096-0.025-0.053-0.055-0.098-0.092-0.138l0 0c-0.010-0.012-0.014-0.026-0.025-0.038h-0.001s0-0.001-0.001-0.002l-1.607-1.6c-0.017-0.017-0.039-0.024-0.058-0.038-0.025-0.021-0.054-0.040-0.084-0.056l-0.003-0.001c-0.026-0.012-0.058-0.023-0.090-0.031l-0.003-0.001c-0.030-0.009-0.065-0.017-0.101-0.020l-0.002-0c-0.007-0-0.015-0-0.023-0-0.026 0-0.051 0.002-0.075 0.005l0.003-0c-0.036 0.005-0.069 0.009-0.104 0.021s-0.064 0.027-0.094 0.045c-0.020 0.011-0.043 0.015-0.061 0.029l-1.774 1.324-0.901-0.897 2.399-2.386 4.36 4.289-0.928 0.919zM15.979 18.394c-0.016-0.002-0.030 0.004-0.046 0.003-0.008-0-0.017-0.001-0.027-0.001-0.031 0-0.062 0.003-0.092 0.008l0.003-0c-0.070 0.011-0.132 0.035-0.187 0.070l0.002-0.001c-0.030 0.018-0.057 0.037-0.083 0.061-0.013 0.011-0.028 0.016-0.040 0.029l-4.698 5.146-4.328-4.256 2.833-2.818c0.096-0.097 0.156-0.23 0.156-0.377 0-0.295-0.239-0.534-0.534-0.534-0.001 0-0.001 0-0.002 0h0l-2.219 0.013 0.028-1.607 3.104 0.027c1.264 1.297 3.027 2.101 4.978 2.101 0.001 0 0.002 0 0.003 0h-0c0.438 0 0.864-0.046 1.28-0.122 0.040 0.032 0.080 0.064 0.129 0.085l2.41 0.96 0.152 0.758 0.178 0.886-3.003-0.427zM20.020 18.572l-0.313-1.558 1.446-1.080 0.946 1.257-2.080 1.381zM23.773 15.741l-0.837 0.785-0.931-1.236 0.831-0.637c0.155-0.119 0.351-0.168 0.543-0.143 0.193 0.027 0.364 0.128 0.48 0.284 0.088 0.117 0.141 0.265 0.141 0.426 0 0.206-0.087 0.391-0.226 0.521l-0 0z"></path>
<path fill="#212121" style="fill: var(--color1, #212121)" d="M13.602 18.544l-2.143-2.134c-0.096-0.096-0.229-0.155-0.376-0.155s-0.28 0.059-0.376 0.155l-2.143 2.133c-0.097 0.097-0.156 0.23-0.156 0.378s0.060 0.281 0.156 0.378l-0-0 2.142 2.134c0.096 0.096 0.229 0.156 0.376 0.156s0.28-0.059 0.376-0.156v0l2.143-2.134c0.097-0.097 0.157-0.23 0.157-0.378s-0.060-0.281-0.157-0.378l-0-0zM11.083 20.303l-1.387-1.381 1.386-1.381 1.387 1.381-1.387 1.381zM17.164 5.071l-0.258 1.036c0.071 0.018 1.738 0.452 1.738 2.149h1.067c0-2.017-1.666-2.965-2.547-3.184zM19.711 9.322h-1.067v1.066h1.067v-1.066z"></path>
</symbol>
<symbol id="icon-client1" viewBox="0 0 106 60">
<path d="M38 7L45.0078 13.6341L32 13.6265V45.8137H66V33.507L73 40.1338V7H38ZM65.6924 32.7283L45.8226 13.918H65.6924V32.7283ZM59.5231 41.1055H37.3801V19.4579H38.9453V39.6397H59.5231V41.1055ZM42.6089 50.0991L41.791 51.7837L40.9731 50.0991H40.2871L41.481 52.3452V53.6538H42.1011V52.3452L43.2925 50.0991H42.6089ZM43.6367 53.6538L43.9248 52.8262H45.3018L45.5923 53.6538H46.2368L44.8916 50.0991H44.3374L42.9946 53.6538H43.6367ZM44.6133 50.8535L45.1284 52.3281H44.0981L44.6133 50.8535ZM47.8701 52.2427C47.7806 52.3794 47.7358 52.5299 47.7358 52.6943C47.7358 52.9938 47.8408 53.2371 48.0508 53.4243C48.2624 53.6099 48.5439 53.7026 48.8955 53.7026C49.2471 53.7026 49.5498 53.6074 49.8037 53.417L50.0039 53.6538H50.6924L50.1699 53.0361C50.375 52.7562 50.4775 52.3973 50.4775 51.9595H49.9624C49.9624 52.1987 49.9128 52.416 49.8135 52.6113L49.1274 51.8008L49.3691 51.625C49.54 51.5013 49.6629 51.3776 49.7378 51.2539C49.8127 51.1286 49.8501 50.9919 49.8501 50.8438C49.8501 50.6191 49.7671 50.4312 49.6011 50.2798C49.4367 50.1268 49.2251 50.0503 48.9663 50.0503C48.6798 50.0503 48.452 50.1317 48.2827 50.2944C48.1134 50.4556 48.0288 50.6753 48.0288 50.9536C48.0288 51.0675 48.0557 51.1855 48.1094 51.3076C48.1647 51.4297 48.2616 51.5778 48.3999 51.752C48.1362 51.9408 47.9596 52.1043 47.8701 52.2427ZM49.4741 53.0288C49.3 53.1623 49.1128 53.229 48.9126 53.229C48.7352 53.229 48.5936 53.1777 48.4878 53.0752C48.382 52.9727 48.3291 52.8392 48.3291 52.6748C48.3291 52.4844 48.4268 52.3151 48.6221 52.167L48.6978 52.1133L49.4741 53.0288ZM48.8369 51.4541C48.6693 51.2474 48.5854 51.0757 48.5854 50.939C48.5854 50.8201 48.6196 50.7217 48.688 50.6436C48.7563 50.5654 48.8483 50.5264 48.9639 50.5264C49.0713 50.5264 49.16 50.5597 49.23 50.6265C49.3 50.6916 49.335 50.7705 49.335 50.8633C49.335 51.0033 49.2845 51.118 49.1836 51.2075L49.1079 51.2686L48.8369 51.4541ZM54.623 53.3853C54.8672 53.172 55.0072 52.8758 55.043 52.4966H54.4277C54.3952 52.7505 54.3179 52.932 54.1958 53.041C54.0737 53.1501 53.8914 53.2046 53.6489 53.2046C53.3836 53.2046 53.1818 53.1037 53.0435 52.9019C52.9067 52.7 52.8384 52.4071 52.8384 52.0229V51.708C52.8416 51.3288 52.9149 51.0415 53.0581 50.8462C53.203 50.6493 53.4097 50.5508 53.6782 50.5508C53.9093 50.5508 54.0843 50.6077 54.2031 50.7217C54.3236 50.834 54.3984 51.0179 54.4277 51.2734H55.043C55.0039 50.8844 54.8647 50.5833 54.6255 50.3701C54.3862 50.1569 54.0705 50.0503 53.6782 50.0503C53.3869 50.0503 53.1297 50.1195 52.9067 50.2578C52.6854 50.3962 52.5153 50.5931 52.3965 50.8486C52.2777 51.1042 52.2183 51.3996 52.2183 51.7349V52.0669C52.2231 52.394 52.2842 52.6813 52.4014 52.9287C52.5186 53.1761 52.6846 53.3674 52.8994 53.5024C53.1159 53.6359 53.3657 53.7026 53.6489 53.7026C54.0542 53.7026 54.3789 53.5968 54.623 53.3853ZM58.2534 52.8872C58.3739 52.6235 58.4341 52.3175 58.4341 51.9692V51.7715C58.4325 51.4248 58.3706 51.1213 58.2485 50.8608C58.1265 50.5988 57.9531 50.3986 57.7285 50.2603C57.5055 50.1203 57.2492 50.0503 56.9595 50.0503C56.6698 50.0503 56.4126 50.1211 56.188 50.2627C55.965 50.4027 55.7917 50.6053 55.668 50.8706C55.5459 51.1359 55.4849 51.4419 55.4849 51.7886V51.9888C55.4865 52.3289 55.5483 52.6292 55.6704 52.8896C55.7941 53.1501 55.9683 53.3511 56.1929 53.4927C56.4191 53.6326 56.6763 53.7026 56.9644 53.7026C57.2557 53.7026 57.5129 53.6326 57.7358 53.4927C57.9604 53.3511 58.133 53.1493 58.2534 52.8872ZM57.5918 50.8779C57.7415 51.0879 57.8164 51.3898 57.8164 51.7837V51.9692C57.8164 52.3696 57.7423 52.674 57.5942 52.8823C57.4478 53.0907 57.2378 53.1948 56.9644 53.1948C56.6942 53.1948 56.4826 53.0882 56.3296 52.875C56.1782 52.6618 56.1025 52.3599 56.1025 51.9692V51.7642C56.1058 51.3817 56.1823 51.0863 56.332 50.8779C56.4834 50.668 56.6925 50.563 56.9595 50.563C57.2329 50.563 57.4437 50.668 57.5918 50.8779Z"/>
</symbol>
<symbol id="icon-client2" viewBox="0 0 106 60">
<path d="M50.1135 5.93452H49.9769C49.7669 5.92181 49.557 5.91672 49.347 5.91163H49.347H49.3268H48.8917C48.4945 5.91163 48.0897 5.92181 47.6875 5.94215C47.6572 5.93994 47.6267 5.93994 47.5964 5.94215C43.9521 6.14863 40.3816 7.05951 37.0804 8.62492L36.6478 8.83344V30.9746L37.6597 30.6313C38.5476 30.3261 39.4937 30.0515 40.4727 29.7972C43.1192 29.1178 45.8366 28.7567 48.5678 28.7216V31.6306C48.2061 31.6332 47.8545 31.6434 47.5028 31.6612H47.4193C45.3174 31.7765 43.2315 32.0967 41.1912 32.6173C38.607 33.2643 36.1142 34.2357 33.7715 35.5086V7.11189C36.2046 5.69275 38.8252 4.62687 41.5554 3.94596C43.9526 3.32705 46.4168 3.00931 48.8917 3H49.3192C49.8302 3.01271 50.3285 3.0356 50.7965 3.0712C52.0296 3.15778 53.2527 3.35263 54.452 3.65353V6.51685C53.2873 6.24551 52.103 6.06695 50.9104 5.98284C50.8862 5.98079 50.862 5.97872 50.8377 5.97666C50.591 5.95561 50.3439 5.93452 50.1135 5.93452ZM55.1527 8.86138C55.7876 8.9097 56.4453 8.93259 57.1107 8.93259C59.7124 8.92307 62.303 8.59083 64.8238 7.94339C67.4067 7.29396 69.8985 6.32178 72.2409 5.04956V32.9402C69.8065 34.3585 67.1852 35.4243 64.4545 36.1061C62.057 36.7227 59.5929 37.0395 57.1182 37.0496C55.2432 37.0647 53.3736 36.8443 51.5529 36.3935V8.32229C51.9829 8.42146 52.4256 8.51301 52.8759 8.58929C53.6146 8.7139 54.3937 8.80544 55.1527 8.86138ZM69.3469 9.07753L68.335 9.41828C67.4041 9.73106 66.4656 10.0108 65.522 10.26C62.7748 10.966 59.9513 11.3281 57.1157 11.3382C56.4555 11.3382 55.8483 11.3204 55.2614 11.2822L54.4545 11.2288V31.3178V34.0057L55.1476 34.0667C55.7901 34.1227 56.4529 34.1506 57.1208 34.1506C59.3543 34.1412 61.578 33.8533 63.7411 33.2937C65.5222 32.8469 67.2551 32.2243 68.9144 31.4348L69.3469 31.2263V9.07753Z"/>
<path d="M35.7373 45.2124C35.5918 45.0615 35.4164 44.943 35.2225 44.8646C35.0286 44.7862 34.8204 44.7496 34.6115 44.7572C34.3889 44.7542 34.1679 44.7957 33.9614 44.8793C33.772 44.9547 33.5999 45.068 33.4554 45.2124C33.3126 45.3572 33.2014 45.5304 33.1291 45.721C33.0498 45.9207 33.0103 46.1341 33.0127 46.3491V50.1431C33.0037 50.4104 33.0547 50.6764 33.162 50.9212C33.2516 51.1156 33.3808 51.2889 33.5415 51.4298C33.6931 51.5575 33.8711 51.6495 34.0626 51.6994C34.2471 51.7512 34.4377 51.7777 34.6292 51.7782C34.8405 51.7803 35.0497 51.7351 35.2414 51.646C35.4311 51.563 35.6029 51.4438 35.7474 51.295C35.8883 51.1476 36.0006 50.9752 36.0788 50.7864C36.1599 50.5951 36.2012 50.3892 36.2002 50.1812V49.7566H35.2085V50.0948C35.2115 50.2103 35.1917 50.3252 35.1504 50.433C35.1181 50.5137 35.0689 50.5866 35.0062 50.6466C34.9447 50.6962 34.8743 50.7334 34.7987 50.7559C34.7318 50.7782 34.6618 50.7902 34.5913 50.7915C34.5028 50.8018 34.4131 50.7885 34.3313 50.7527C34.2496 50.717 34.1787 50.6602 34.1258 50.5881C34.0323 50.4356 33.9865 50.2585 33.9943 50.0795V46.5423C33.9881 46.3462 34.0298 46.1515 34.1157 45.9753C34.1672 45.8952 34.24 45.8313 34.3259 45.7908C34.4118 45.7503 34.5072 45.7349 34.6014 45.7464C34.6869 45.7434 34.7718 45.7612 34.8489 45.7984C34.926 45.8356 34.993 45.8911 35.0441 45.96C35.1551 46.1057 35.2131 46.2852 35.2085 46.4686V46.7966H36.1901V46.4101C36.1921 46.1831 36.1509 45.9578 36.0686 45.7464C35.9954 45.5476 35.8826 45.3659 35.7373 45.2124Z"/>
<path d="M41.6289 45.1691C41.3127 44.9021 40.9136 44.7546 40.5007 44.7521C40.2987 44.7529 40.0984 44.7891 39.9087 44.8589C39.7161 44.9279 39.5384 45.0332 39.3851 45.1691C39.2208 45.3168 39.0897 45.498 39.0005 45.7006C38.9006 45.9323 38.8515 46.183 38.8563 46.4355V50.0744C38.8495 50.3304 38.8987 50.5847 39.0005 50.8195C39.0903 51.0151 39.2215 51.1887 39.3851 51.328C39.5367 51.4688 39.7147 51.5777 39.9087 51.6485C40.0984 51.7183 40.2987 51.7544 40.5007 51.7553C40.7027 51.7549 40.9031 51.7187 41.0926 51.6485C41.29 51.5767 41.4719 51.468 41.6289 51.328C41.7871 51.1861 41.9145 51.013 42.0033 50.8195C42.1051 50.5847 42.1544 50.3304 42.1475 50.0744V46.4355C42.1524 46.183 42.1032 45.9323 42.0033 45.7006C41.9151 45.5001 41.7878 45.3194 41.6289 45.1691ZM41.166 50.0744C41.1743 50.1714 41.1609 50.269 41.1268 50.3601C41.0926 50.4512 41.0386 50.5334 40.9687 50.6008C40.8377 50.7106 40.6725 50.7708 40.5019 50.7708C40.3313 50.7708 40.1662 50.7106 40.0352 50.6008C39.9652 50.5334 39.9112 50.4512 39.8771 50.3601C39.8429 50.269 39.8295 50.1714 39.8379 50.0744V46.4355C39.8295 46.3385 39.8429 46.2409 39.8771 46.1498C39.9112 46.0587 39.9652 45.9764 40.0352 45.9091C40.1662 45.7993 40.3313 45.7391 40.5019 45.7391C40.6725 45.7391 40.8377 45.7993 40.9687 45.9091C41.0386 45.9764 41.0926 46.0587 41.1268 46.1498C41.1609 46.2409 41.1743 46.3385 41.166 46.4355V50.0744Z"/>
<path d="M49.3673 51.6994V44.8107H48.4136L47.1614 48.4572H47.1437L45.8813 44.8107H44.9377V51.6994H45.9218V47.5087H45.9395L46.9033 50.4712H47.3941L48.3655 47.5087H48.3832V51.6994H49.3673Z"/>
<path d="M54.9582 45.2937C54.8067 45.1237 54.6154 44.9943 54.4016 44.9173C54.1713 44.8424 53.9303 44.8063 53.6883 44.8105H52.2261V51.6993H53.2076V49.0089H53.7136C54.0198 49.0228 54.3245 48.958 54.599 48.8207C54.8221 48.6968 55.0082 48.515 55.1378 48.2943C55.2513 48.1111 55.3278 47.9071 55.3629 47.6942C55.4016 47.435 55.4193 47.173 55.4161 46.911C55.4256 46.5802 55.3933 46.2495 55.3199 45.9269C55.2545 45.6885 55.13 45.4706 54.9582 45.2937ZM54.4522 47.3941C54.448 47.5188 54.4169 47.6412 54.3612 47.7527C54.3051 47.8586 54.2163 47.9434 54.1082 47.9942C53.9628 48.0593 53.8042 48.0889 53.6453 48.0807H53.1975V45.7387H53.7034C53.8558 45.7312 54.0077 45.7609 54.1461 45.8251C54.2476 45.8834 54.3282 45.9724 54.3763 46.0794C54.43 46.2004 54.4592 46.331 54.4624 46.4634C54.4624 46.6084 54.4624 46.7609 54.4624 46.9211C54.4624 47.0813 54.4725 47.2466 54.4624 47.3941H54.4522Z"/>
<path d="M59.6077 44.8107H58.8032L57.2854 51.6994H58.2669L58.5553 50.2194H59.8935L60.1819 51.6994H61.1635L59.6077 44.8107ZM58.702 49.2811L59.1852 46.784H59.2029L59.6836 49.2811H58.702Z"/>
<path d="M65.9496 48.9607H65.9319L64.4494 44.8107H63.5059V51.6994H64.4874V47.557H64.5076L66.0078 51.6994H66.9311V44.8107H65.9496V48.9607Z"/>
<path d="M71.9476 44.8107L71.1583 47.5494H71.1381L70.3488 44.8107H69.3091L70.6574 48.7878V51.6994H71.639V48.7878L72.9873 44.8107H71.9476Z"/>
<path d="M33 53.6445H33.4731V54.9719H33.7943V53.6445H34.2649V53.3724H33V53.6445Z"/>
<path d="M36.9767 53.3724L36.3569 54.9719H36.6984L36.83 54.6083H37.4675L37.6041 54.9719H37.9532L37.3182 53.3724H36.9767ZM36.9261 54.3387L37.1437 53.7462L37.3612 54.3387H36.9261Z"/>
<path d="M40.9079 54.3821H41.2773V54.5881C41.1694 54.6746 41.0358 54.722 40.8978 54.7229C40.8333 54.7265 40.7689 54.7145 40.7099 54.688C40.6509 54.6614 40.5991 54.6211 40.5588 54.5703C40.474 54.4485 40.4322 54.3017 40.4399 54.1533C40.4399 53.7973 40.5942 53.6193 40.9003 53.6193C40.9809 53.6112 41.0617 53.6325 41.128 53.6791C41.1944 53.7257 41.2419 53.7947 41.2621 53.8735L41.5783 53.8125C41.51 53.4997 41.2849 53.3421 40.9003 53.3421C40.6947 53.3366 40.4947 53.4103 40.3413 53.5481C40.2607 53.6276 40.1983 53.7239 40.1586 53.8302C40.1188 53.9365 40.1026 54.0502 40.1111 54.1634C40.1017 54.3823 40.1749 54.5966 40.316 54.7636C40.3943 54.8444 40.4892 54.9071 40.594 54.9475C40.6988 54.9879 40.8111 55.0049 40.9231 54.9975C41.1734 55.0045 41.4165 54.9133 41.6011 54.7432V54.1126H40.9079V54.3821Z"/>
<path d="M44.9224 53.3724H44.5986V54.9719H45.7193V54.6998H44.9224V53.3724Z"/>
<path d="M48.3175 53.3724H47.9937V54.9719H48.3175V53.3724Z"/>
<path d="M51.6364 54.4405L50.9812 53.3724H50.6675V54.9719H50.9685V53.9268L51.6111 54.9719H51.9323V53.3724H51.6364V54.4405Z"/>
<path d="M54.6368 54.2675H55.4337V53.9954H54.6368V53.6445H55.4944V53.3724H54.313V54.9719H55.5273V54.6998H54.6368V54.2675Z"/>
<path d="M61.9121 54.0031H61.2822V53.3724H60.9609V54.9719H61.2822V54.2726H61.9121V54.9719H62.2334V53.3724H61.9121V54.0031Z"/>
<path d="M64.9302 54.2675H65.7296V53.9954H64.9302V53.6445H65.7903V53.3724H64.6089V54.9719H65.8206V54.6998H64.9302V54.2675Z"/>
<path d="M69.0233 54.2676C69.3015 54.2244 69.4432 54.0769 69.4432 53.8226C69.4513 53.7546 69.441 53.6856 69.4134 53.623C69.3858 53.5603 69.3419 53.5063 69.2863 53.4666C69.1415 53.3938 68.9799 53.3614 68.8183 53.3725H68.1404V54.972H68.4617V54.3032H68.5249C68.5934 54.299 68.6619 54.3112 68.7247 54.3388C68.7717 54.3678 68.8108 54.4079 68.8386 54.4558L69.1877 54.9644H69.5722L69.3774 54.6516C69.2913 54.4972 69.1699 54.3656 69.0233 54.2676ZM68.6994 54.0464H68.4617V53.6446H68.7146C68.8248 53.6357 68.9357 53.6486 69.041 53.6827C69.0644 53.7034 69.0828 53.7291 69.095 53.7579C69.1072 53.7867 69.1127 53.8179 69.1113 53.8492C69.1098 53.8804 69.1014 53.911 69.0866 53.9385C69.0718 53.966 69.051 53.9899 69.0258 54.0082C68.9202 54.0406 68.8096 54.0535 68.6994 54.0464Z"/>
<path d="M72.1094 54.2675H72.9063V53.9954H72.1094V53.6445H72.9696V53.3724H71.7856V54.9719H72.9999V54.6998H72.1094V54.2675Z"/>
</symbol>
<symbol id="icon-client3" viewBox="0 0 106 60">
<path d="M36.4062 49.1014C36.4221 49.1018 36.4377 49.1049 36.4523 49.1106C36.4668 49.1163 36.4798 49.1245 36.4907 49.1346L36.7088 49.3431C36.5395 49.5118 36.3302 49.6468 36.0953 49.7388C35.8203 49.8391 35.5238 49.8875 35.2256 49.8809C34.9454 49.8859 34.6669 49.8408 34.4077 49.7482C34.1738 49.6632 33.9636 49.5356 33.7915 49.3739C33.6158 49.2062 33.4804 49.0096 33.3934 48.7958C33.2981 48.5574 33.2511 48.3065 33.2544 48.0542C33.2505 47.8003 33.3013 47.548 33.4043 47.3103C33.4996 47.0951 33.6432 46.8986 33.8269 46.7322C34.0131 46.5691 34.2358 46.4408 34.4813 46.3555C34.7498 46.265 35.0358 46.22 35.3237 46.2228C35.5913 46.2172 35.8574 46.2582 36.1062 46.3436C36.3222 46.425 36.5205 46.538 36.6924 46.6777L36.5098 46.9004C36.4971 46.9161 36.4815 46.9297 36.4634 46.9407C36.4419 46.9535 36.4158 46.9594 36.3898 46.9573C36.3615 46.9556 36.3342 46.9474 36.3107 46.9336L36.2126 46.8743L36.0763 46.7985C36.0174 46.7704 35.9564 46.7458 35.8936 46.7251C35.8127 46.6999 35.7298 46.6801 35.6455 46.6659C35.5385 46.6487 35.4298 46.6408 35.321 46.6422C35.1136 46.6399 34.9078 46.6737 34.7157 46.7417C34.5366 46.8046 34.3749 46.8999 34.2413 47.0212C34.1054 47.1503 34.0006 47.3018 33.9332 47.4667C33.8565 47.6553 33.8186 47.8542 33.8215 48.0542C33.8182 48.2574 33.856 48.4595 33.9332 48.6513C33.9998 48.8147 34.1026 48.9653 34.2359 49.0943C34.3608 49.2146 34.5155 49.3086 34.6885 49.3692C34.8664 49.4333 35.0575 49.4655 35.2501 49.4639C35.3614 49.4654 35.4727 49.4591 35.5828 49.445C35.7625 49.4259 35.935 49.3716 36.0872 49.2862C36.1635 49.2425 36.2355 49.1934 36.3025 49.1393C36.3306 49.1161 36.3674 49.1026 36.4062 49.1014Z"/>
<path d="M42.7043 48.0538C42.7077 48.3052 42.6578 48.5549 42.5571 48.7906C42.4682 49.0043 42.3283 49.1993 42.1464 49.3626C41.9645 49.526 41.7449 49.654 41.502 49.7382C40.9682 49.9151 40.3781 49.9151 39.8443 49.7382C39.6029 49.6527 39.3847 49.5244 39.2036 49.3615C39.0218 49.1952 38.8808 48.9986 38.7891 48.7835C38.5927 48.3063 38.5927 47.7847 38.7891 47.3076C38.8822 47.0923 39.023 46.8951 39.2036 46.7271C39.3862 46.5694 39.6043 46.446 39.8443 46.3647C40.3774 46.1846 40.9688 46.1846 41.502 46.3647C41.7442 46.4502 41.9633 46.5784 42.1454 46.7414C42.3249 46.906 42.4648 47.1001 42.5571 47.3123C42.6581 47.5495 42.708 47.8009 42.7043 48.0538ZM42.1318 48.0538C42.1361 47.8527 42.101 47.6525 42.0282 47.4615C41.9671 47.298 41.8677 47.1472 41.7364 47.0185C41.6086 46.8968 41.4512 46.8013 41.2757 46.739C40.8878 46.6095 40.4584 46.6095 40.0706 46.739C39.895 46.8013 39.7376 46.8968 39.6098 47.0185C39.4767 47.1464 39.3763 47.2974 39.3154 47.4615C39.1766 47.8472 39.1766 48.2604 39.3154 48.6461C39.3769 48.81 39.4772 48.9609 39.6098 49.0891C39.7378 49.2101 39.8952 49.3048 40.0706 49.3663C40.4591 49.4925 40.8871 49.4925 41.2757 49.3663C41.451 49.3048 41.6084 49.2101 41.7364 49.0891C41.8672 48.9601 41.9664 48.8094 42.0282 48.6461C42.1013 48.4552 42.1364 48.2549 42.1318 48.0538Z"/>
<path d="M47.0012 48.6747L47.0584 48.8074C47.0803 48.76 47.0993 48.7173 47.1212 48.6747C47.142 48.6302 47.1656 48.5867 47.192 48.5444L48.5853 46.3438C48.6125 46.3059 48.6371 46.2823 48.6643 46.2751C48.7014 46.2653 48.7402 46.2613 48.7788 46.2633H49.1905V49.8425H48.7025V47.2108C48.7025 47.1776 48.7025 47.1397 48.7025 47.0995C48.6999 47.0585 48.6999 47.0173 48.7025 46.9763L47.3011 49.2077C47.2833 49.2411 47.2548 49.2694 47.2191 49.2891C47.1833 49.3089 47.1417 49.3192 47.0993 49.319H47.0203C46.9778 49.3195 46.9361 49.3093 46.9003 49.2895C46.8644 49.2697 46.836 49.2413 46.8185 49.2077L45.3762 46.9621C45.3762 47.0047 45.3762 47.0474 45.3762 47.09C45.3762 47.1326 45.3762 47.1705 45.3762 47.2037V49.8354H44.9045V46.2633H45.3162C45.3549 46.2613 45.3937 46.2653 45.4307 46.2751C45.4646 46.2897 45.4915 46.314 45.5071 46.3438L46.9303 48.5468C46.9583 48.5875 46.982 48.6303 47.0012 48.6747Z"/>
<path d="M52.2443 48.4969V49.8376H51.699V46.2632H52.915C53.1445 46.2594 53.3734 46.2857 53.5939 46.3413C53.7704 46.3848 53.934 46.4607 54.0737 46.564C54.1948 46.6608 54.2882 46.7808 54.3464 46.9146C54.4107 47.0604 54.4422 47.2156 54.4391 47.3717C54.4415 47.5285 54.4072 47.684 54.3382 47.8289C54.2726 47.966 54.1719 48.0884 54.0437 48.1866C53.9038 48.2941 53.7394 48.3749 53.5612 48.4234C53.3489 48.4824 53.1269 48.5104 52.9041 48.5063L52.2443 48.4969ZM52.2443 48.1131H52.9041C53.0474 48.1148 53.1901 48.0964 53.3267 48.0587C53.4394 48.0257 53.5432 47.9733 53.632 47.9047C53.714 47.8391 53.7774 47.7581 53.8174 47.6678C53.8621 47.5723 53.8843 47.4701 53.8829 47.367C53.8892 47.2676 53.8706 47.1683 53.8282 47.0758C53.7858 46.9834 53.7207 46.9 53.6375 46.8317C53.4292 46.6904 53.1676 46.6219 52.9041 46.6398H52.2443V48.1131Z"/>
<path d="M59.5731 49.8424H59.1423C59.0991 49.8438 59.0566 49.8321 59.0223 49.8092C58.9914 49.7869 58.9671 49.7585 58.9514 49.7263L58.5806 48.8616H56.7185L56.334 49.7263C56.3199 49.7579 56.2964 49.7857 56.2659 49.8069C56.2312 49.8311 56.1877 49.8437 56.1432 49.8424H55.7124L57.3483 46.2628H57.9154L59.5731 49.8424ZM56.8739 48.5134H58.4116L57.7627 47.0564C57.7131 46.9468 57.6721 46.8344 57.64 46.72L57.5773 46.9072C57.5582 46.964 57.5364 47.0162 57.5173 47.0588L56.8739 48.5134Z"/>
<path d="M61.9287 46.2795C61.9613 46.295 61.9893 46.3169 62.0105 46.3434L64.3961 49.0417C64.3961 48.9991 64.3961 48.9564 64.3961 48.9161C64.3961 48.8759 64.3961 48.8356 64.3961 48.7977V46.2629H64.8842V49.8424H64.6115C64.5728 49.8434 64.5344 49.8361 64.4997 49.8211C64.466 49.804 64.4364 49.7815 64.4125 49.7548L62.0295 47.0589C62.0322 47.0999 62.0322 47.141 62.0295 47.1821C62.0295 47.2223 62.0295 47.2579 62.0295 47.291V49.8424H61.5415V46.2629H61.8305C61.8642 46.2621 61.8977 46.2677 61.9287 46.2795Z"/>
<path d="M68.9029 48.4188V49.8402H68.3576V48.4188L66.8499 46.2631H67.3379C67.3799 46.2609 67.4215 46.2718 67.4551 46.2938C67.4848 46.3168 67.5097 46.3441 67.5288 46.3744L68.4721 47.765C68.5103 47.8242 68.543 47.8787 68.5703 47.9308C68.5975 47.9829 68.6193 48.0327 68.6384 48.0824L68.7093 47.9284C68.7358 47.8721 68.7668 47.8175 68.802 47.765L69.7318 46.3649C69.7513 46.337 69.7752 46.3115 69.8026 46.2891C69.835 46.2646 69.877 46.2518 69.9199 46.2536H70.4134L68.9029 48.4188Z"/>
<path d="M46.7312 40.2561C46.9684 40.2822 47.2083 40.3035 47.451 40.3225C51.1298 38.8926 54.242 36.5523 56.3985 33.5942C58.5549 30.636 59.66 27.1912 59.5756 23.6904L55.5214 20.1678C56.3457 23.8951 55.9601 27.7482 54.4077 31.2959C52.8553 34.8437 50.1973 37.9461 46.7312 40.2561Z"/>
<path d="M45.2834 40.0923L45.3925 40.1112C49.0964 37.8094 51.9203 34.5951 53.499 30.8839C55.0777 27.1727 55.3387 23.1353 54.2481 19.2939L48.4734 14.2767C50.8091 18.4008 51.7493 23.0162 51.1846 27.5862C50.6199 32.1562 48.5735 36.493 45.2834 40.0923Z"/>
<path d="M64.8677 27.8265C63.8866 31.6731 61.5039 35.1423 58.0734 37.7189C57.0715 38.4755 55.9908 39.1496 54.8452 39.7324C57.6387 39.019 60.2063 37.7578 62.35 36.046C64.4938 34.3341 66.1564 32.2174 67.2098 29.859L64.8677 27.8265Z"/>
<path d="M63.949 27.2601L60.6146 24.3629C60.5508 27.666 59.47 30.894 57.4845 33.7114C55.499 36.5287 52.6813 38.8327 49.3242 40.3837H49.3406C50.0887 40.3835 50.8362 40.3447 51.579 40.2676C54.7164 39.155 57.488 37.3849 59.6464 35.1152C61.8049 32.8455 63.283 30.1469 63.949 27.2601Z"/>
<path d="M45.7662 12.1609L41.7882 8.69995C38.2321 9.89391 35.1737 11.9928 33.0133 14.722C30.8528 17.4512 29.691 20.6835 29.6799 23.9959V23.9959C29.6933 27.656 31.1111 31.2077 33.7092 34.0888C36.3072 36.9699 39.9369 39.016 44.0239 39.903C47.6724 36.041 49.8084 31.2687 50.1217 26.2798C50.4351 21.2908 48.9093 16.3449 45.7662 12.1609Z"/>
<path d="M73.1399 26.7273C73.1255 22.3848 71.1336 18.2238 67.5995 15.1532C64.0653 12.0826 59.2761 10.352 54.2781 10.3395C51.9686 10.3374 49.6787 10.7077 47.5247 11.4315L71.8802 32.5926C72.7142 30.7221 73.1413 28.7333 73.1399 26.7273Z"/>
</symbol>
<symbol id="icon-client4" viewBox="0 0 106 60">
<path d="M24.1462 21.1028H24.1433C21.7453 21.1028 19.8013 22.8304 19.8013 24.9615V24.964C19.8013 27.0951 21.7453 28.8227 24.1433 28.8227H24.1462C26.5442 28.8227 28.4882 27.0951 28.4882 24.964V24.9615C28.4882 22.8304 26.5442 21.1028 24.1462 21.1028Z"/>
<path d="M56.1951 19.8693C56.1883 16.9093 54.8624 14.0722 52.5075 11.979C50.1526 9.88568 46.9605 8.70667 43.6299 8.69995V8.69995C40.2982 8.70533 37.1046 9.88374 34.7485 11.9772C32.3924 14.0706 31.0656 16.9084 31.0588 19.8693V36.1921C31.0588 36.1921 56.1923 33.7044 56.1951 19.8718V19.8693Z"/>
<path d="M11 41.5495C11.006 43.6091 11.9291 45.5828 13.5676 47.0394C15.2061 48.496 17.4267 49.317 19.7442 49.3231C22.0612 49.317 24.2814 48.4963 25.9197 47.0403C27.5581 45.5843 28.4816 43.6112 28.4884 41.552V30.1943C28.4884 30.1943 11 31.9266 11 41.5495ZM19.7442 43.5844C19.2913 43.5844 18.8486 43.4651 18.472 43.2415C18.0955 43.0179 17.802 42.7001 17.6287 42.3282C17.4554 41.9564 17.41 41.5472 17.4984 41.1525C17.5867 40.7577 17.8048 40.3951 18.125 40.1105C18.4453 39.8259 18.8533 39.6321 19.2975 39.5536C19.7416 39.4751 20.202 39.5154 20.6205 39.6694C21.0389 39.8234 21.3965 40.0843 21.6481 40.4189C21.8997 40.7535 22.034 41.147 22.034 41.5495C22.0351 41.8173 21.9767 42.0828 21.8622 42.3306C21.7476 42.5783 21.5791 42.8036 21.3664 42.9933C21.1536 43.1831 20.9008 43.3337 20.6224 43.4364C20.3441 43.5392 20.0456 43.5921 19.7442 43.5921V43.5844Z"/>
<path d="M37.4177 42.4637H35.7302V44.2069H34.8513V39.9413H37.6287V40.6532H35.7302V41.7548H37.4177V42.4637ZM41.6423 42.1708C41.6423 42.5907 41.5681 42.9589 41.4197 43.2753C41.2712 43.5917 41.0583 43.8358 40.781 44.0077C40.5056 44.1796 40.1892 44.2655 39.8318 44.2655C39.4783 44.2655 39.1628 44.1805 38.8855 44.0106C38.6082 43.8407 38.3933 43.5985 38.241 43.2841C38.0886 42.9677 38.0115 42.6044 38.0095 42.1942V41.9833C38.0095 41.5634 38.0847 41.1942 38.2351 40.8759C38.3875 40.5555 38.6013 40.3104 38.8767 40.1405C39.1541 39.9686 39.4705 39.8827 39.8259 39.8827C40.1814 39.8827 40.4968 39.9686 40.7722 40.1405C41.0496 40.3104 41.2634 40.5555 41.4138 40.8759C41.5662 41.1942 41.6423 41.5624 41.6423 41.9803V42.1708ZM40.7517 41.9774C40.7517 41.5302 40.6716 41.1903 40.5115 40.9579C40.3513 40.7255 40.1228 40.6093 39.8259 40.6093C39.531 40.6093 39.3035 40.7245 39.1433 40.955C38.9832 41.1835 38.9021 41.5194 38.9001 41.9628V42.1708C38.9001 42.6063 38.9802 42.9442 39.1404 43.1844C39.3005 43.4247 39.531 43.5448 39.8318 43.5448C40.1267 43.5448 40.3533 43.4296 40.5115 43.1991C40.6697 42.9667 40.7498 42.6288 40.7517 42.1854V41.9774ZM44.4929 43.0878C44.4929 42.9218 44.4343 42.7948 44.3171 42.7069C44.2 42.6171 43.989 42.5233 43.6843 42.4257C43.3796 42.326 43.1384 42.2284 42.9607 42.1327C42.4763 41.871 42.2341 41.5184 42.2341 41.0751C42.2341 40.8446 42.2986 40.6395 42.4275 40.4598C42.5583 40.2782 42.7449 40.1366 42.9871 40.035C43.2312 39.9335 43.5046 39.8827 43.8074 39.8827C44.1121 39.8827 44.3835 39.9384 44.6218 40.0497C44.8601 40.1591 45.0447 40.3143 45.1755 40.5155C45.3083 40.7167 45.3748 40.9452 45.3748 41.201H44.4958C44.4958 41.0057 44.4343 40.8544 44.3113 40.7469C44.1882 40.6376 44.0154 40.5829 43.7927 40.5829C43.5779 40.5829 43.4109 40.6288 43.2917 40.7206C43.1726 40.8104 43.113 40.9296 43.113 41.078C43.113 41.2167 43.1824 41.3329 43.321 41.4266C43.4617 41.5204 43.6677 41.6083 43.9392 41.6903C44.4392 41.8407 44.8035 42.0272 45.032 42.2499C45.2605 42.4725 45.3748 42.7499 45.3748 43.0819C45.3748 43.451 45.2351 43.7411 44.9558 43.952C44.6765 44.161 44.3005 44.2655 43.8279 44.2655C43.4998 44.2655 43.2009 44.2059 42.9314 44.0868C42.6619 43.9657 42.4558 43.8007 42.3132 43.5917C42.1726 43.3827 42.1023 43.1405 42.1023 42.8651H42.9841C42.9841 43.3358 43.2654 43.5712 43.8279 43.5712C44.0369 43.5712 44.2 43.5292 44.3171 43.4452C44.4343 43.3593 44.4929 43.2401 44.4929 43.0878ZM49.1833 40.6532H47.8767V44.2069H46.9978V40.6532H45.7087V39.9413H49.1833V40.6532ZM52.2537 42.3583H50.5662V43.5009H52.5466V44.2069H49.6873V39.9413H52.5408V40.6532H50.5662V41.6698H52.2537V42.3583ZM54.6414 42.6454H53.9412V44.2069H53.0623V39.9413H54.6472C55.1511 39.9413 55.5398 40.0536 55.8132 40.2782C56.0867 40.5028 56.2234 40.8202 56.2234 41.2303C56.2234 41.5214 56.1599 41.7645 56.033 41.9598C55.908 42.1532 55.7175 42.3075 55.4617 42.4227L56.3845 44.1659V44.2069H55.4412L54.6414 42.6454ZM53.9412 41.9335H54.6501C54.8708 41.9335 55.0417 41.8778 55.1628 41.7665C55.2839 41.6532 55.3445 41.4979 55.3445 41.3007C55.3445 41.0995 55.2869 40.9413 55.1716 40.826C55.0583 40.7108 54.8835 40.6532 54.6472 40.6532H53.9412V41.9335ZM59.2673 42.704V44.2069H58.3884V39.9413H60.0525C60.3728 39.9413 60.6541 39.9999 60.8962 40.1171C61.1404 40.2343 61.3279 40.4012 61.4587 40.618C61.5896 40.8329 61.655 41.078 61.655 41.3534C61.655 41.7714 61.5115 42.1014 61.2244 42.3436C60.9392 42.5839 60.5437 42.704 60.0378 42.704H59.2673ZM59.2673 41.9921H60.0525C60.2849 41.9921 60.4617 41.9374 60.5828 41.828C60.7058 41.7186 60.7673 41.5624 60.7673 41.3593C60.7673 41.1503 60.7058 40.9813 60.5828 40.8524C60.4597 40.7235 60.2898 40.6571 60.073 40.6532H59.2673V41.9921ZM64.8279 42.3583H63.1404V43.5009H65.1208V44.2069H62.2615V39.9413H65.115V40.6532H63.1404V41.6698H64.8279V42.3583ZM68.906 40.6532H67.5994V44.2069H66.7205V40.6532H65.4314V39.9413H68.906V40.6532ZM71.9763 42.3583H70.2888V43.5009H72.2693V44.2069H69.4099V39.9413H72.2634V40.6532H70.2888V41.6698H71.9763V42.3583ZM74.364 42.6454H73.6638V44.2069H72.7849V39.9413H74.3699C74.8738 39.9413 75.2625 40.0536 75.5359 40.2782C75.8093 40.5028 75.946 40.8202 75.946 41.2303C75.946 41.5214 75.8826 41.7645 75.7556 41.9598C75.6306 42.1532 75.4402 42.3075 75.1843 42.4227L76.1072 44.1659V44.2069H75.1638L74.364 42.6454ZM73.6638 41.9335H74.3728C74.5935 41.9335 74.7644 41.8778 74.8855 41.7665C75.0066 41.6532 75.0671 41.4979 75.0671 41.3007C75.0671 41.0995 75.0095 40.9413 74.8943 40.826C74.781 40.7108 74.6062 40.6532 74.3699 40.6532H73.6638V41.9335ZM78.8289 43.0878C78.8289 42.9218 78.7703 42.7948 78.6531 42.7069C78.5359 42.6171 78.325 42.5233 78.0203 42.4257C77.7156 42.326 77.4744 42.2284 77.2966 42.1327C76.8123 41.871 76.5701 41.5184 76.5701 41.0751C76.5701 40.8446 76.6345 40.6395 76.7634 40.4598C76.8943 40.2782 77.0808 40.1366 77.323 40.035C77.5671 39.9335 77.8406 39.8827 78.1433 39.8827C78.448 39.8827 78.7195 39.9384 78.9578 40.0497C79.196 40.1591 79.3806 40.3143 79.5115 40.5155C79.6443 40.7167 79.7107 40.9452 79.7107 41.201H78.8318C78.8318 41.0057 78.7703 40.8544 78.6472 40.7469C78.5242 40.6376 78.3513 40.5829 78.1287 40.5829C77.9138 40.5829 77.7468 40.6288 77.6277 40.7206C77.5085 40.8104 77.449 40.9296 77.449 41.078C77.449 41.2167 77.5183 41.3329 77.657 41.4266C77.7976 41.5204 78.0037 41.6083 78.2751 41.6903C78.7751 41.8407 79.1394 42.0272 79.3679 42.2499C79.5964 42.4725 79.7107 42.7499 79.7107 43.0819C79.7107 43.451 79.571 43.7411 79.2917 43.952C79.0125 44.161 78.6365 44.2655 78.1638 44.2655C77.8357 44.2655 77.5369 44.2059 77.2673 44.0868C76.9978 43.9657 76.7917 43.8007 76.6492 43.5917C76.5085 43.3827 76.4382 43.1405 76.4382 42.8651H77.3201C77.3201 43.3358 77.6013 43.5712 78.1638 43.5712C78.3728 43.5712 78.5359 43.5292 78.6531 43.4452C78.7703 43.3593 78.8289 43.2401 78.8289 43.0878Z"/>
</symbol>
<symbol id="icon-client5" viewBox="0 0 106 60">
<path d="M26.7569 44.7352C27.0006 45.0114 27.1304 45.3572 27.1236 45.7122C27.136 45.9437 27.0914 46.1749 26.993 46.3885C26.8947 46.6021 26.7451 46.7927 26.5554 46.9463C26.082 47.2736 25.4956 47.4336 24.9037 47.3969H22V41.2055H24.8442C25.4057 41.1713 25.9626 41.3167 26.42 41.6168C26.6036 41.7576 26.7491 41.9355 26.8448 42.1365C26.9406 42.3376 26.984 42.5562 26.9716 42.7753C26.9883 43.1168 26.8712 43.4526 26.6413 43.722C26.4206 43.968 26.1156 44.1385 25.7758 44.2059C26.161 44.2703 26.5087 44.4579 26.7569 44.7352ZM23.3511 43.8006H24.5667C24.843 43.8193 25.1174 43.7463 25.3397 43.5949C25.431 43.5192 25.502 43.4252 25.5473 43.3203C25.5925 43.2154 25.6108 43.1024 25.6007 42.99C25.6093 42.878 25.5906 42.7657 25.5461 42.661C25.5015 42.5564 25.4322 42.4622 25.343 42.3851C25.1141 42.2294 24.8312 42.1553 24.5469 42.1764H23.3511V43.8006ZM25.4587 46.175C25.5562 46.0974 25.6329 46.0003 25.6828 45.8912C25.7326 45.7821 25.7543 45.6639 25.7461 45.5458C25.7535 45.4264 25.7309 45.307 25.6799 45.1969C25.6289 45.0868 25.551 44.9888 25.4521 44.9107C25.2142 44.7492 24.9217 44.6699 24.6262 44.6868H23.3511V46.3897H24.6427C24.9334 46.4051 25.2212 46.3293 25.4587 46.175Z"/>
<path d="M32.5709 47.3969L30.9886 44.9772H30.394V47.3969H29.033V41.2055H31.6096C32.2591 41.164 32.9012 41.3524 33.4034 41.7318C33.7635 42.0678 33.9808 42.5106 34.0159 42.9803C34.051 43.45 33.9018 43.9158 33.595 44.2937C33.2771 44.6271 32.8428 44.8494 32.3661 44.9228L34.0508 47.3969H32.5709ZM30.394 44.1333H31.5072C32.2802 44.1333 32.6667 43.8208 32.6667 43.1957C32.6746 43.0681 32.6534 42.9403 32.6045 42.8205C32.5556 42.7008 32.48 42.5916 32.3826 42.5C32.1383 42.314 31.8237 42.2238 31.5072 42.249H30.3807L30.394 44.1333Z"/>
<path d="M40.0102 46.1506H37.2982L36.8192 47.3968H35.3921L37.8829 41.2749H39.4255L41.9064 47.3968H40.4793L40.0102 46.1506ZM39.6469 45.213L38.6558 42.5997L37.6648 45.213H39.6469Z"/>
<path d="M49.3223 47.3969H47.9712L44.942 43.1866V47.3969H43.5942V41.2054H44.942L47.9712 45.44V41.2054H49.3223V47.3969Z"/>
<path d="M57.0325 45.9149C56.7531 46.3823 56.3275 46.7626 55.8102 47.0068C55.2221 47.2788 54.5694 47.4128 53.9107 47.397H51.5059V41.2055H53.9107C54.5683 41.1898 55.2201 41.3206 55.8102 41.5866C56.3274 41.8253 56.7535 42.2017 57.0325 42.6664C57.3106 43.17 57.4555 43.7263 57.4555 44.2906C57.4555 44.8549 57.3106 45.4113 57.0325 45.9149ZM55.4865 45.7667C55.8721 45.3554 56.0841 44.8312 56.0841 44.2891C56.0841 43.7471 55.8721 43.2229 55.4865 42.8116C55.0204 42.439 54.4126 42.2499 53.7951 42.2853H52.857V46.293H53.7951C54.4126 46.3283 55.0204 46.1392 55.4865 45.7667Z"/>
<path d="M40.8557 6.76672C40.8557 6.76672 58.2944 12.7949 57.9244 21.518V36.2722C57.9244 36.2722 40.4989 30.2411 40.8623 21.518L40.8557 6.76672Z"/>
<path d="M73.4604 32.8181C76.7539 30.7428 80.5634 29.4574 84.5401 29.0796V24.4609C79.958 26.0779 76.071 29.0098 73.4604 32.8181Z"/>
<path d="M71.4815 34.2095C74.1772 29.2396 78.8504 25.4046 84.5399 23.4932V10.1847C84.5399 10.1847 59.7049 18.7717 60.2301 31.1939V52.2001C60.2301 52.2001 61.3368 51.816 63.0777 51.0961C63.0777 50.4247 63.0777 49.7472 63.157 49.0666C63.6709 43.2996 66.6653 37.9556 71.4815 34.2095Z"/>
<path d="M69.1197 42.0131C69.2502 40.5563 69.5413 39.1152 69.9885 37.712C66.9896 40.9471 65.1734 44.9614 64.7956 49.1906C64.7592 49.5899 64.7394 49.9891 64.7295 50.4005C66.14 49.7804 67.7818 49.0061 69.5062 48.0957C69.0662 46.0948 68.936 44.0472 69.1197 42.0131Z"/>
<path d="M70.1074 42.0887C69.9421 43.929 70.0454 45.7813 70.4146 47.5966C77.1998 43.8793 84.8241 38.1355 84.5301 31.1939V30.589C79.6823 31.0856 75.1468 33.026 71.6204 36.112C70.7947 38.0244 70.2848 40.0387 70.1074 42.0887Z"/>
</symbol>
<symbol id="icon-client6" viewBox="0 0 106 60">
<path d="M53.425 27.4082C52.9819 26.8184 52.7699 26.1213 52.8203 25.4196V22.5364C52.8203 21.6526 53.0207 20.9809 53.4216 20.5214C53.8224 20.0619 54.511 19.8331 55.4871 19.8351C56.4044 19.8351 57.0555 20.0306 57.4405 20.4217C57.8605 20.9207 58.0648 21.5309 58.018 22.1463V22.8239H56.3772V22.1375C56.383 21.9129 56.3671 21.6882 56.3296 21.4659C56.306 21.3138 56.2234 21.1732 56.0952 21.067C55.9267 20.9525 55.7145 20.897 55.5007 20.9115C55.2759 20.897 55.0529 20.9556 54.8756 21.0758C54.7327 21.1935 54.6374 21.3477 54.6038 21.5157C54.5567 21.7511 54.5351 21.9897 54.5393 22.2285V25.7276C54.5134 26.0652 54.5858 26.403 54.7499 26.7102C54.8315 26.8141 54.9448 26.8965 55.0774 26.9483C55.2099 27.0001 55.3564 27.0192 55.5007 27.0035C55.7109 27.0184 55.9195 26.9615 56.0816 26.8451C56.2153 26.7305 56.3013 26.581 56.3262 26.4198C56.3645 26.1877 56.3816 25.9533 56.3772 25.7188V25.009H58.018V25.6572C58.0641 26.2988 57.8648 26.9356 57.4507 27.4698C57.0736 27.8981 56.4315 28.1122 55.4871 28.1122C54.5427 28.1122 53.8292 27.8834 53.425 27.4082Z"/>
<path d="M60.2569 27.4376C59.8425 26.9888 59.6353 26.3347 59.6353 25.4695V22.4367C59.6353 21.5803 59.8425 20.9321 60.2569 20.4921C60.6714 20.0521 61.3644 19.8331 62.336 19.8351C63.3008 19.8351 63.9904 20.0541 64.4049 20.4921C64.8193 20.9321 65.03 21.5803 65.03 22.4367V25.4695C65.03 26.3259 64.8193 26.9829 64.3981 27.4346C63.9768 27.8863 63.2906 28.1122 62.336 28.1122C61.3814 28.1122 60.6748 27.8834 60.2569 27.4376ZM63.1004 26.7102C63.2488 26.4291 63.3164 26.1212 63.2974 25.8127V22.0994C63.3165 21.7969 63.25 21.4949 63.1038 21.2195C63.0205 21.1134 62.9044 21.0296 62.7686 20.9777C62.6329 20.9259 62.483 20.908 62.336 20.9262C62.1886 20.9085 62.0384 20.9265 61.9022 20.9783C61.766 21.0301 61.6492 21.1136 61.5648 21.2195C61.4155 21.4941 61.3477 21.7965 61.3678 22.0994V25.8303C61.3472 26.1389 61.4148 26.4471 61.5648 26.7278C61.6605 26.8224 61.7785 26.8982 61.9109 26.9502C62.0434 27.0021 62.1872 27.029 62.3326 27.029C62.4781 27.029 62.6219 27.0021 62.7543 26.9502C62.8867 26.8982 63.0047 26.8224 63.1004 26.7278V26.7102Z"/>
<path d="M67.0035 19.9236H68.7701L70.0984 25.5192L71.4573 19.9236H73.1763L73.3496 28.0003H72.079L71.9431 22.3871L70.6318 28.0003H69.6126L68.2537 22.3665L68.128 28.0003H66.8439L67.0035 19.9236Z"/>
<path d="M75.3303 19.9236H78.082C79.6673 19.9236 80.46 20.688 80.46 22.217C80.46 23.6814 79.6254 24.4126 77.9563 24.4106H77.0187V28.0003H75.3201L75.3303 19.9236ZM77.6811 23.3754C77.8489 23.3938 78.0194 23.3805 78.1807 23.3364C78.342 23.2924 78.4903 23.2186 78.6153 23.1203C78.8101 22.8475 78.896 22.5271 78.8599 22.2082C78.8688 21.9618 78.8414 21.7154 78.7784 21.475C78.7542 21.3947 78.7117 21.3194 78.6533 21.2534C78.595 21.1874 78.522 21.1322 78.4387 21.0908C78.2029 20.9932 77.9422 20.9488 77.6811 20.9618H77.0221V23.3754H77.6811Z"/>
<path d="M82.9094 19.9236H84.7337L86.6056 28.0003H85.0225L84.6522 26.138H83.0249L82.6445 28.0003H81.0376L82.9094 19.9236ZM84.4687 25.2025L83.8335 21.8123L83.1982 25.2025H84.4687Z"/>
<path d="M88.1173 19.9236H89.3063L91.5825 24.5309V19.9236H92.9923V28.0003H91.861L89.5713 23.1906V28.0003H88.1139L88.1173 19.9236Z"/>
<path d="M96.2945 24.9208L94.4022 19.9349H95.9955L97.1506 23.1376L98.2343 19.9349H99.7936L97.9251 24.9208V28.0003H96.2945V24.9208Z"/>
<path d="M56.0477 31.5316V31.954H54.6617V35.2359H54.0807V31.954H52.6879V31.5316H56.0477Z"/>
<path d="M60.3927 35.2362H59.9442C59.8987 35.2386 59.8538 35.2261 59.8185 35.201C59.7846 35.1795 59.7587 35.15 59.7438 35.116L59.3429 34.2361H57.4201L57.0192 35.116C57.0078 35.1528 56.9869 35.1868 56.958 35.2157C56.9225 35.2402 56.8778 35.2527 56.8324 35.2509H56.3839L58.0825 31.5468H58.6737L60.3927 35.2362ZM57.5797 33.8607H59.1833L58.5038 32.3533C58.4537 32.2393 58.4117 32.1227 58.3781 32.0043C58.3543 32.0747 58.3339 32.1421 58.3136 32.2008L58.2524 32.3562L57.5797 33.8607Z"/>
<path d="M63.3212 34.8724C63.4275 34.8772 63.5341 34.8772 63.6405 34.8724C63.7323 34.8642 63.8232 34.8495 63.9123 34.8284C63.9955 34.8107 64.0772 34.7882 64.1569 34.7609C64.2316 34.7345 64.3064 34.7022 64.3845 34.67V33.8369H63.705C63.6882 33.8378 63.6714 33.8356 63.6556 33.8305C63.6399 33.8255 63.6255 33.8177 63.6133 33.8076C63.6022 33.7993 63.5933 33.7889 63.5875 33.7772C63.5816 33.7655 63.5788 33.7529 63.5794 33.7401V33.4556H64.8975V34.8753C64.7899 34.9417 64.6763 35.0006 64.5577 35.0513C64.4366 35.1029 64.3104 35.1451 64.1807 35.1774C64.0417 35.2127 63.8997 35.2382 63.756 35.2537C63.5913 35.2695 63.4257 35.2773 63.26 35.2771C62.967 35.2793 62.6763 35.2325 62.4039 35.1393C62.1496 35.051 61.9185 34.9193 61.7245 34.7521C61.5353 34.5832 61.3864 34.3839 61.2862 34.1655C61.1792 33.9199 61.1261 33.6593 61.13 33.397C61.1264 33.133 61.1782 32.8706 61.2828 32.6226C61.3805 32.4031 61.5297 32.2033 61.7211 32.036C61.9149 31.8693 62.1461 31.7386 62.4005 31.6517C62.6914 31.5572 63.0002 31.5105 63.311 31.5138C63.4691 31.5137 63.627 31.5245 63.7832 31.5461C63.9213 31.5655 64.0567 31.597 64.1875 31.64C64.3063 31.6785 64.4202 31.7277 64.5272 31.7866C64.6313 31.8445 64.7301 31.9092 64.8227 31.9802L64.6597 32.209C64.6469 32.2299 64.6279 32.2475 64.6046 32.2598C64.5813 32.2722 64.5545 32.279 64.5272 32.2794C64.4896 32.2784 64.4531 32.2682 64.4219 32.2501C64.3709 32.2266 64.3165 32.1973 64.2554 32.1621C64.1832 32.123 64.107 32.0896 64.0278 32.0624C63.9265 32.0273 63.822 31.9998 63.7152 31.9802C63.5729 31.9576 63.4285 31.9468 63.2838 31.948C63.0597 31.9458 62.8371 31.9807 62.6281 32.0506C62.4391 32.1161 62.2687 32.2162 62.1287 32.3439C61.9879 32.4771 61.8804 32.6339 61.8128 32.8045C61.661 33.2056 61.661 33.6381 61.8128 34.0393C61.8871 34.2135 62.0029 34.3724 62.1525 34.5057C62.2918 34.6328 62.4609 34.7328 62.6485 34.799C62.8645 34.8631 63.0935 34.888 63.3212 34.8724Z"/>
<path d="M68.7363 34.8136H70.5912V35.2359H68.1689V31.5316H68.7499L68.7363 34.8136Z"/>
<path d="M72.5208 35.2359H71.9398V31.5316H72.5208V35.2359Z"/>
<path d="M74.6814 31.5492C74.7159 31.5662 74.746 31.5892 74.7697 31.6167L77.253 34.409C77.2497 34.3651 77.2497 34.321 77.253 34.277C77.253 34.236 77.253 34.1949 77.253 34.1568V31.517H77.7592V35.2362H77.4671C77.4238 35.2392 77.3804 35.2321 77.3414 35.2156C77.3061 35.1972 77.275 35.1733 77.2496 35.1452L74.7697 32.3558C74.7697 32.3998 74.7697 32.4409 74.7697 32.482C74.7697 32.523 74.7697 32.5612 74.7697 32.5964V35.2362H74.2839V31.5316H74.5863C74.6191 31.5317 74.6515 31.5377 74.6814 31.5492Z"/>
<path d="M82.0364 31.5316V31.9393H79.9777V33.1624H81.6457V33.5554H79.9777V34.8195H82.0364V35.2272H79.3798V31.5316H82.0364Z"/>
<path d="M21.1618 8.65551L46.9568 14.9788V37.1368L21.1618 30.8164V8.65551ZM19.5073 6.76672V31.8928L48.6079 39.0285V13.9054L19.5073 6.76672Z"/>
<path d="M35.1039 50.6922L6 43.5505V18.4271L35.1039 25.5659V50.6922Z"/>
<path d="M19.9897 8.37099L45.4484 14.615L34.6215 23.9649L9.1594 17.7179L19.9897 8.37099ZM19.5073 6.76672L6 18.4277L35.1039 25.5662L48.6078 13.9053L19.5073 6.76672Z"/>
<path d="M36.7415 49.2788L48.6078 39.0315L36.7415 36.1193V49.2788Z"/>
</symbol>
<symbol id="icon-footer1insta" viewBox="0 0 32 32">
<path fill="#fff" style="fill: var(--color4, #fff)" d="M31.968 9.408c-0.074-1.701-0.349-2.869-0.742-3.882-0.424-1.111-1.054-2.059-1.85-2.837l-0.001-0.001c-0.78-0.792-1.724-1.419-2.778-1.827l-0.054-0.018c-1.019-0.394-2.181-0.667-3.882-0.742-1.712-0.082-2.256-0.101-6.602-0.101-4.344 0-4.888 0.019-6.595 0.094-1.699 0.074-2.869 0.349-3.88 0.742-1.112 0.424-2.060 1.054-2.839 1.85l-0.001 0.001c-0.791 0.78-1.418 1.724-1.825 2.778l-0.018 0.054c-0.395 1.019-0.669 2.181-0.744 3.882-0.082 1.712-0.101 2.256-0.101 6.602 0 4.344 0.019 4.888 0.094 6.595 0.075 1.701 0.35 2.869 0.744 3.882 0.426 1.11 1.055 2.057 1.849 2.837l0.001 0.001c0.8 0.813 1.77 1.443 2.832 1.843 1.019 0.395 2.182 0.67 3.882 0.744 1.707 0.075 2.251 0.094 6.595 0.094 4.346 0 4.89-0.019 6.595-0.094 1.701-0.074 2.869-0.349 3.882-0.742 2.157-0.85 3.833-2.526 4.664-4.628l0.019-0.055c0.394-1.019 0.669-2.182 0.744-3.882 0.075-1.707 0.093-2.251 0.093-6.595s-0.006-4.888-0.080-6.595zM29.088 22.474c-0.070 1.563-0.333 2.406-0.55 2.97-0.552 1.399-1.64 2.486-3.004 3.024l-0.036 0.012c-0.56 0.219-1.411 0.482-2.968 0.55-1.688 0.075-2.194 0.094-6.464 0.094-4.269 0-4.782-0.019-6.464-0.094-1.563-0.069-2.406-0.331-2.97-0.55-0.721-0.269-1.334-0.676-1.836-1.192l-0.001-0.001c-0.517-0.503-0.924-1.117-1.184-1.803l-0.011-0.034c-0.218-0.563-0.48-1.413-0.549-2.97-0.075-1.688-0.094-2.195-0.094-6.464 0-4.27 0.019-4.784 0.094-6.464 0.069-1.563 0.331-2.406 0.549-2.97 0.269-0.722 0.678-1.337 1.198-1.837l0.002-0.002c0.504-0.517 1.119-0.923 1.806-1.182l0.034-0.011c0.56-0.219 1.411-0.48 2.968-0.55 1.688-0.074 2.195-0.093 6.464-0.093 4.275 0 4.782 0.019 6.464 0.093 1.563 0.069 2.406 0.331 2.97 0.55 0.693 0.256 1.325 0.662 1.837 1.194 0.531 0.52 0.938 1.144 1.195 1.84 0.218 0.56 0.48 1.411 0.549 2.968 0.075 1.688 0.094 2.194 0.094 6.464 0 4.269-0.019 4.768-0.094 6.458z"></path>
<path fill="#fff" style="fill: var(--color4, #fff)" d="M16.059 7.782c-4.539 0.002-8.218 3.682-8.219 8.221v0c0 0 0 0.001 0 0.002 0 4.541 3.681 8.222 8.222 8.222s8.222-3.681 8.222-8.222c0-4.541-3.681-8.222-8.222-8.222-0.001 0-0.001 0-0.002 0h0zM16.059 21.334c-2.945-0-5.332-2.388-5.332-5.333s2.388-5.333 5.333-5.333c0 0 0.001 0 0.001 0h-0c2.946 0 5.334 2.388 5.334 5.334s-2.388 5.334-5.334 5.334v0zM26.525 7.458c0 1.060-0.86 1.92-1.92 1.92s-1.92-0.86-1.92-1.92v0c0-1.060 0.86-1.92 1.92-1.92s1.92 0.86 1.92 1.92v0z"></path>
</symbol>
<symbol id="icon-footer2twi" viewBox="0 0 32 32">
<path fill="#fff" style="fill: var(--color4, #fff)" d="M32 6.078c-1.1 0.493-2.376 0.857-3.713 1.028l-0.068 0.007c1.36-0.817 2.382-2.078 2.873-3.579l0.013-0.046c-1.197 0.722-2.591 1.273-4.076 1.573l-0.084 0.014c-1.2-1.279-2.9-2.076-4.787-2.076-3.622 0-6.558 2.936-6.558 6.558 0 0.001 0 0.003 0 0.004v-0c0 0.52 0.043 1.021 0.152 1.496-5.454-0.266-10.28-2.88-13.522-6.861-0.564 0.949-0.899 2.092-0.902 3.313v0.001c0 2.272 1.171 4.286 2.914 5.451-1.091-0.030-2.107-0.325-2.994-0.823l0.033 0.017v0.072c0.003 3.165 2.236 5.807 5.213 6.44l0.043 0.008c-0.499 0.136-1.071 0.215-1.662 0.215-0.020 0-0.041-0-0.061-0l0.003 0c-0.419 0-0.843-0.024-1.242-0.112 0.85 2.598 3.261 4.509 6.13 4.57-2.215 1.746-5.045 2.8-8.122 2.8-0.004 0-0.008 0-0.013 0h0.001c-0.018 0-0.040 0-0.062 0-0.531 0-1.055-0.034-1.569-0.099l0.061 0.006c2.826 1.846 6.287 2.944 10.004 2.944 0.021 0 0.042-0 0.063-0h-0.003c12.072 0 18.672-10 18.672-18.669 0-0.288-0.010-0.57-0.024-0.848 1.299-0.936 2.39-2.064 3.258-3.355l0.030-0.047z"></path>
</symbol>
<symbol id="icon-footer3fb" viewBox="0 0 32 32">
<path fill="#fff" style="fill: var(--color4, #fff)" d="M21.328 5.312h2.923v-5.088c-1.232-0.143-2.66-0.224-4.107-0.224-0.052 0-0.104 0-0.157 0l0.008-0c-4.213 0-7.099 2.65-7.099 7.52v4.48h-4.646v5.688h4.646v14.312h5.699v-14.31h4.459l0.709-5.688h-5.17v-3.922c0-1.643 0.443-2.768 2.734-2.768z"></path>
</symbol>
<symbol id="icon-footer4lin" viewBox="0 0 32 32">
<path fill="#fff" style="fill: var(--color4, #fff)" d="M31.992 32h0.008v-11.738c0-5.741-1.237-10.163-7.947-10.163-3.227 0-5.392 1.77-6.277 3.45h-0.093v-2.914h-6.365v21.363h6.627v-10.578c0-2.786 0.528-5.48 3.978-5.48 3.398 0 3.448 3.179 3.448 5.658v10.402h6.621zM0.528 10.635h6.635v21.365h-6.635v-21.365zM3.843 0c-2.123 0-3.843 1.721-3.843 3.843v0c0 2.12 1.722 3.878 3.843 3.878 2.12 0 3.842-1.757 3.842-3.878s-1.72-3.841-3.841-3.843h-0z"></path>
</symbol>
<symbol id="icon-header_envelope" viewBox="0 0 16 12">
<path d="M14.5 0H1.50001C0.672854 0 0 0.672853 0 1.50001V10.5C0 11.3271 0.672854 12 1.50001 12H14.5C15.3271 12 16 11.3271 16 10.5V1.50001C16 0.672853 15.3271 0 14.5 0ZM14.5 0.999994C14.5679 0.999994 14.6325 1.01409 14.6916 1.0387L8 6.83838L1.30833 1.0387C1.36742 1.01412 1.43204 0.999994 1.49998 0.999994H14.5ZM14.5 11H1.50001C1.22414 11 0.999996 10.7759 0.999996 10.5V2.09521L7.67236 7.87792C7.76661 7.95944 7.8833 7.99999 8 7.99999C8.1167 7.99999 8.23339 7.95948 8.32764 7.87792L15 2.09521V10.5C15 10.7759 14.7759 11 14.5 11Z"/>
</symbol>
<symbol id="icon-header_smartphone" viewBox="0 0 10 16">
<path d="M8.5 0H1.5C0.672848 0 0 0.672848 0 1.5V14.5C0 15.3272 0.672848 16 1.5 16H8.5C9.32715 16 10 15.3272 10 14.5V1.5C10 0.672848 9.32715 0 8.5 0ZM1.5 1H8.5C8.77588 1 9 1.22412 9 1.5V12H1V1.5C1 1.22412 1.22412 1 1.5 1ZM8.5 15H1.5C1.22412 15 1 14.7759 1 14.5V13H9V14.5C9 14.7759 8.77588 15 8.5 15Z"/>
<path d="M2.35355 13.7389C2.54882 13.9213 2.54882 14.2169 2.35355 14.3992C2.15828 14.5816 1.84172 14.5816 1.64645 14.3992C1.45118 14.2169 1.45118 13.9213 1.64645 13.7389C1.84172 13.5566 2.15828 13.5566 2.35355 13.7389Z"/>
</symbol>
<symbol id="icon-team1insta" viewBox="0 0 32 32">
<path d="M31.968 9.408c-0.074-1.701-0.349-2.869-0.742-3.882-0.424-1.111-1.054-2.059-1.85-2.837l-0.001-0.001c-0.78-0.792-1.724-1.419-2.778-1.827l-0.054-0.018c-1.019-0.394-2.181-0.667-3.882-0.742-1.712-0.082-2.256-0.101-6.602-0.101-4.344 0-4.888 0.019-6.595 0.094-1.699 0.074-2.869 0.349-3.88 0.742-1.112 0.424-2.060 1.054-2.839 1.85l-0.001 0.001c-0.791 0.78-1.418 1.724-1.825 2.778l-0.018 0.054c-0.395 1.019-0.669 2.181-0.744 3.882-0.082 1.712-0.101 2.256-0.101 6.602 0 4.344 0.019 4.888 0.094 6.595 0.075 1.701 0.35 2.869 0.744 3.882 0.426 1.11 1.055 2.057 1.849 2.837l0.001 0.001c0.8 0.813 1.77 1.443 2.832 1.843 1.019 0.395 2.182 0.67 3.882 0.744 1.707 0.075 2.251 0.094 6.595 0.094 4.346 0 4.89-0.019 6.595-0.094 1.701-0.074 2.869-0.349 3.882-0.742 2.157-0.85 3.833-2.526 4.664-4.628l0.019-0.055c0.394-1.019 0.669-2.182 0.744-3.882 0.075-1.707 0.093-2.251 0.093-6.595s-0.006-4.888-0.080-6.595zM29.088 22.474c-0.070 1.563-0.333 2.406-0.55 2.97-0.552 1.399-1.64 2.486-3.004 3.024l-0.036 0.012c-0.56 0.219-1.411 0.482-2.968 0.55-1.688 0.075-2.194 0.094-6.464 0.094-4.269 0-4.782-0.019-6.464-0.094-1.563-0.069-2.406-0.331-2.97-0.55-0.721-0.269-1.334-0.676-1.836-1.192l-0.001-0.001c-0.517-0.503-0.924-1.117-1.184-1.803l-0.011-0.034c-0.218-0.563-0.48-1.413-0.549-2.97-0.075-1.688-0.094-2.195-0.094-6.464 0-4.27 0.019-4.784 0.094-6.464 0.069-1.563 0.331-2.406 0.549-2.97 0.269-0.722 0.678-1.337 1.198-1.837l0.002-0.002c0.504-0.517 1.119-0.923 1.806-1.182l0.034-0.011c0.56-0.219 1.411-0.48 2.968-0.55 1.688-0.074 2.195-0.093 6.464-0.093 4.275 0 4.782 0.019 6.464 0.093 1.563 0.069 2.406 0.331 2.97 0.55 0.693 0.256 1.325 0.662 1.837 1.194 0.531 0.52 0.938 1.144 1.195 1.84 0.218 0.56 0.48 1.411 0.549 2.968 0.075 1.688 0.094 2.194 0.094 6.464 0 4.269-0.019 4.768-0.094 6.458z"></path>
<path d="M16.059 7.782c-4.539 0.002-8.218 3.682-8.219 8.221v0c0.091 4.471 3.737 8.060 8.221 8.060s8.13-3.589 8.221-8.052l0-0.009c-0.001-4.54-3.681-8.22-8.221-8.221h-0zM16.059 21.334c-2.945-0-5.332-2.388-5.332-5.333s2.388-5.333 5.333-5.333c0 0 0.001 0 0.001 0h-0c2.946 0 5.334 2.388 5.334 5.334s-2.388 5.334-5.334 5.334v0zM26.525 7.458c0 1.060-0.86 1.92-1.92 1.92s-1.92-0.86-1.92-1.92v0c0-1.060 0.86-1.92 1.92-1.92s1.92 0.86 1.92 1.92v0z"></path>
</symbol>
<symbol id="icon-team2twi" viewBox="0 0 32 32">
<path d="M32 6.078c-1.1 0.493-2.376 0.857-3.713 1.028l-0.068 0.007c1.36-0.817 2.382-2.078 2.873-3.579l0.013-0.046c-1.197 0.722-2.591 1.273-4.076 1.573l-0.084 0.014c-1.2-1.279-2.9-2.076-4.787-2.076-3.622 0-6.558 2.936-6.558 6.558 0 0.001 0 0.003 0 0.004v-0c0 0.52 0.043 1.021 0.152 1.496-5.454-0.266-10.28-2.88-13.522-6.861-0.564 0.949-0.899 2.092-0.902 3.313v0.001c0 2.272 1.171 4.286 2.914 5.451-1.091-0.030-2.107-0.325-2.994-0.823l0.033 0.017v0.072c0.003 3.165 2.236 5.807 5.213 6.44l0.043 0.008c-0.499 0.136-1.071 0.215-1.662 0.215-0.020 0-0.041-0-0.061-0l0.003 0c-0.419 0-0.843-0.024-1.242-0.112 0.85 2.598 3.261 4.509 6.13 4.57-2.215 1.746-5.045 2.8-8.122 2.8-0.004 0-0.008 0-0.013 0h0.001c-0.018 0-0.040 0-0.062 0-0.531 0-1.055-0.034-1.569-0.099l0.061 0.006c2.826 1.846 6.287 2.944 10.004 2.944 0.021 0 0.042-0 0.063-0h-0.003c12.072 0 18.672-10 18.672-18.669 0-0.288-0.010-0.57-0.024-0.848 1.299-0.936 2.39-2.064 3.258-3.355l0.030-0.047z"></path>
</symbol>
<symbol id="icon-team3fb" viewBox="0 0 32 32">
<path d="M21.328 5.312h2.923v-5.088c-1.232-0.143-2.66-0.224-4.108-0.224-0.052 0-0.104 0-0.156 0l0.008-0c-4.213 0-7.099 2.65-7.099 7.52v4.48h-4.646v5.688h4.646v14.312h5.699v-14.31h4.459l0.707-5.688h-5.168v-3.922c0-1.643 0.443-2.768 2.734-2.768z"></path>
</symbol>
<symbol id="icon-team4lin" viewBox="0 0 32 32">
<path d="M31.992 32h0.008v-11.738c0-5.741-1.237-10.163-7.947-10.163-3.227 0-5.392 1.77-6.277 3.45h-0.093v-2.914h-6.365v21.363h6.627v-10.578c0-2.786 0.528-5.48 3.978-5.48 3.398 0 3.448 3.179 3.448 5.658v10.402h6.621zM0.528 10.635h6.635v21.365h-6.635v-21.365zM3.843 0c-2.123 0-3.843 1.721-3.843 3.843v0c0 2.12 1.722 3.878 3.843 3.878 2.12 0 3.842-1.757 3.842-3.878s-1.72-3.841-3.841-3.843h-0z"></path>
</symbol>
<symbol id="icon-modal-close" viewBox="0 0 18 18">
<path d="M15 4.10786L13.8921 3L9.5 7.39214L5.10786 3L4 4.10786L8.39214 8.5L4 12.8921L5.10786 14L9.5 9.60786L13.8921 14L15 12.8921L10.6079 8.5L15 4.10786Z"></path>
</symbol>
<symbol id="icon-modal-name" viewBox="0 0 18 18">
<path d="M9 9C10.6575 9 12 7.6575 12 6C12 4.3425 10.6575 3 9 3C7.3425 3 6 4.3425 6 6C6 7.6575 7.3425 9 9 9ZM9 10.5C6.9975 10.5 3 11.505 3 13.5V14.25C3 14.6625 3.3375 15 3.75 15H14.25C14.6625 15 15 14.6625 15 14.25V13.5C15 11.505 11.0025 10.5 9 10.5Z"/>
</symbol>
<symbol id="icon-modal-phone" viewBox="0 0 18 18">
<path d="M13.996 11.1226L12.1579 10.9127C11.7164 10.862 11.2822 11.014 10.971 11.3252L9.63945 12.6568C7.59144 11.6147 5.91251 9.94296 4.87041 7.8877L6.20922 6.54888C6.5204 6.2377 6.67237 5.80349 6.62171 5.36205L6.41185 3.53836C6.325 2.80745 5.70988 2.25745 4.97173 2.25745H3.71976C2.902 2.25745 2.22175 2.93771 2.2724 3.75547C2.65595 9.93572 7.59868 14.8712 13.7717 15.2548C14.5894 15.3054 15.2697 14.6252 15.2697 13.8074V12.5555C15.2769 11.8245 14.7269 11.2094 13.996 11.1226Z"/>
</symbol>
<symbol id="icon-modal-mail" viewBox="0 0 18 18">
<path d="M15 3H3C2.175 3 1.5075 3.675 1.5075 4.5L1.5 13.5C1.5 14.325 2.175 15 3 15H15C15.825 15 16.5 14.325 16.5 13.5V4.5C16.5 3.675 15.825 3 15 3ZM14.7 6.1875L9.3975 9.5025C9.1575 9.6525 8.8425 9.6525 8.6025 9.5025L3.3 6.1875C3.1125 6.0675 3 5.865 3 5.6475C3 5.145 3.5475 4.845 3.975 5.1075L9 8.25L14.025 5.1075C14.4525 4.845 15 5.145 15 5.6475C15 5.865 14.8875 6.0675 14.7 6.1875Z"/>
</symbol>
<symbol id="footer-tg-signup" viewBox="0 0 24 24">
<path d="M24 0L0 13.5L7.66994 16.3407L19.5 5.25002L10.5017 17.3896L10.509 17.3923L10.5 17.3896V24.0001L14.8013 18.982L20.2501 21.0001L24 0Z" fill="white"/>
</symbol>
<symbol id="mobile__burger-menu" viewBox="0 0 40 40">
<path fill-rule="evenodd" clip-rule="evenodd" d="M8 14.6667V12H32V14.6667H8ZM8 21.3333H32V18.6667H8V21.3333ZM8 28H32V25.3333H8V28Z"/>
</symbol>

</svg>
