<!-- Generated by IcoMoon.io -->
<svg version="1.1" xmlns="http://www.w3.org/2000/svg" width="32" height="32" viewBox="0 0 32 32">
<title>client1</title>
<path fill="#afb1b8" d="M7.245 0l4.231 4.005-7.854-0.005v19.434h20.528v-7.431l4.226 4.001v-20.005h-21.132zM23.965 15.534l-11.997-11.357h11.997v11.357zM20.24 20.592h-13.369v-13.069h0.945v12.185h12.424v0.885zM10.029 26.023l-0.494 1.017-0.494-1.017h-0.414l0.721 1.356v0.79h0.374v-0.79l0.719-1.356h-0.412zM10.649 28.169l0.174-0.5h0.831l0.175 0.5h0.389l-0.812-2.146h-0.335l-0.81 2.146h0.388zM11.239 26.479l0.311 0.89h-0.622l0.311-0.891zM13.205 27.317c-0.051 0.076-0.081 0.169-0.081 0.269 0 0.001 0 0.002 0 0.004v-0c0 0.181 0.063 0.328 0.19 0.441s0.298 0.168 0.51 0.168c0.212 0 0.395-0.058 0.548-0.173l0.121 0.143h0.415l-0.315-0.373c0.124-0.169 0.185-0.386 0.185-0.65h-0.311c0 0.145-0.030 0.276-0.089 0.394l-0.415-0.489 0.146-0.106c0.089-0.060 0.163-0.135 0.221-0.221l0.002-0.003c0.042-0.070 0.068-0.154 0.068-0.244 0-0.001 0-0.003 0-0.004v0c0-0.003 0-0.005 0-0.008 0-0.132-0.058-0.251-0.15-0.332l-0.001-0c-0.095-0.086-0.223-0.139-0.362-0.139-0.007 0-0.015 0-0.022 0l0.001-0c-0.173 0-0.31 0.049-0.412 0.147s-0.153 0.23-0.153 0.398c0 0.069 0.016 0.139 0.048 0.214 0.034 0.074 0.092 0.163 0.175 0.268-0.159 0.114-0.266 0.213-0.319 0.296zM14.174 27.792c-0.092 0.074-0.21 0.12-0.338 0.121h-0c-0.005 0-0.011 0-0.017 0-0.092 0-0.177-0.035-0.24-0.094l0 0c-0.059-0.058-0.096-0.14-0.096-0.23 0-0.004 0-0.008 0-0.013l-0 0.001c0-0.115 0.059-0.217 0.177-0.307l0.046-0.033 0.469 0.553zM13.789 26.841c-0.101-0.125-0.152-0.228-0.152-0.311 0-0.072 0.021-0.131 0.062-0.178 0.039-0.044 0.095-0.071 0.158-0.071 0.003 0 0.006 0 0.009 0h-0c0.002-0 0.005-0 0.008-0 0.059 0 0.113 0.023 0.153 0.061l-0-0c0.042 0.040 0.063 0.088 0.063 0.143 0 0.002 0 0.005 0 0.008 0 0.080-0.035 0.151-0.091 0.2l-0 0-0.046 0.036-0.164 0.112zM17.282 28.007c0.147-0.129 0.232-0.308 0.254-0.536h-0.371c-0.020 0.153-0.066 0.263-0.14 0.328s-0.184 0.099-0.33 0.099c-0.16 0-0.282-0.061-0.365-0.183s-0.124-0.299-0.124-0.531v-0.19c0.002-0.229 0.047-0.402 0.133-0.52 0.088-0.119 0.213-0.178 0.374-0.178 0.139 0 0.245 0.034 0.317 0.103s0.118 0.179 0.136 0.333h0.371c-0.024-0.235-0.107-0.417-0.252-0.545s-0.335-0.193-0.572-0.193c-0.176 0-0.331 0.042-0.465 0.126-0.135 0.086-0.241 0.208-0.306 0.351l-0.002 0.005c-0.068 0.15-0.108 0.326-0.108 0.511 0 0.009 0 0.018 0 0.026l-0-0.001v0.2c0.003 0.197 0.040 0.371 0.111 0.52s0.171 0.264 0.301 0.346c0.131 0.081 0.282 0.121 0.453 0.121 0.245 0 0.441-0.063 0.588-0.191zM19.474 27.706c0.072-0.159 0.109-0.344 0.109-0.554v-0.119c0-0.006 0-0.014 0-0.022 0-0.191-0.041-0.373-0.116-0.537l0.003 0.008c-0.068-0.152-0.176-0.275-0.311-0.36l-0.003-0.002c-0.135-0.085-0.289-0.127-0.464-0.127s-0.33 0.042-0.465 0.128c-0.135 0.085-0.239 0.206-0.314 0.367-0.070 0.155-0.111 0.337-0.111 0.528 0 0.009 0 0.019 0 0.028l-0-0.001v0.121c0.001 0.205 0.038 0.386 0.112 0.543 0.075 0.158 0.18 0.279 0.316 0.365 0.136 0.085 0.292 0.127 0.465 0.127 0.176 0 0.331-0.042 0.466-0.127 0.135-0.086 0.24-0.208 0.312-0.366zM19.075 26.492c0.091 0.127 0.135 0.31 0.135 0.548v0.112c0 0.241-0.045 0.426-0.134 0.551-0.088 0.126-0.215 0.189-0.38 0.189-0.005 0-0.010 0-0.015 0-0.152 0-0.286-0.076-0.366-0.192l-0.001-0.001c-0.092-0.129-0.137-0.311-0.137-0.547v-0.124c0.002-0.231 0.048-0.409 0.138-0.535 0.081-0.116 0.213-0.19 0.363-0.19 0.005 0 0.011 0 0.016 0l-0.001-0c0.165 0 0.293 0.063 0.382 0.19z"></path>
</svg>
